<?xml version="1.0" encoding="utf-8"?>
<!-- Generator: Adobe Illustrator 21.0.0, SVG Export Plug-In . SVG Version: 6.00 Build 0)  -->
<svg version="1.1" id="Layer_1" xmlns="http://www.w3.org/2000/svg" xmlns:xlink="http://www.w3.org/1999/xlink" x="0px" y="0px"
	 viewBox="0 0 184 184" style="enable-background:new 0 0 184 184;" xml:space="preserve">
<style type="text/css">
	.st0{fill:#B49256;}
</style>
<path class="st0" d="M151.1,91.9c0-2.1-0.7-3.8-2.1-5.2l-41.5-41.5L97.2,34.8c-1.4-1.4-3.1-2.1-5.2-2.1s-3.8,0.7-5.2,2.1L76.4,45.3
	L34.9,86.7c-1.4,1.4-2.1,3.1-2.1,5.2s0.7,3.8,2.1,5.2l10.4,10.4c1.4,1.4,3.1,2.1,5.2,2.1s3.8-0.7,5.2-2.1l21.7-21.7v57.5
	c0,2,0.7,3.7,2.2,5.2c1.5,1.5,3.2,2.2,5.2,2.2h14.7c2,0,3.7-0.7,5.2-2.2c1.5-1.5,2.2-3.2,2.2-5.2V85.8l21.7,21.7
	c1.5,1.5,3.2,2.2,5.2,2.2s3.7-0.7,5.2-2.2L149.1,97C150.4,95.7,151.1,93.9,151.1,91.9z M180,92c0,16-3.9,30.7-11.8,44.2
	c-7.9,13.5-18.5,24.2-32,32C122.7,176.1,108,180,92,180s-30.7-3.9-44.2-11.8c-13.5-7.9-24.2-18.5-32-32S4,108,4,92
	s3.9-30.7,11.8-44.2s18.5-24.2,32-32S76,4,92,4s30.7,3.9,44.2,11.8s24.2,18.5,32,32C176.1,61.3,180,76,180,92z"/>
</svg>
