<?xml version="1.0" encoding="utf-8"?>
<!-- Generator: Adobe Illustrator 21.0.0, SVG Export Plug-In . SVG Version: 6.00 Build 0)  -->
<svg version="1.1" id="Layer_1" xmlns="http://www.w3.org/2000/svg" xmlns:xlink="http://www.w3.org/1999/xlink" x="0px" y="0px"
	 viewBox="0 0 28 35" style="enable-background:new 0 0 28 35;" xml:space="preserve">
<style type="text/css">
	.st0{fill:#B49256;}
</style>
<path class="st0" d="M16.4,13.6c0,0.3-0.6,0.4-0.1,0.8C16.4,14.2,16.7,14,16.4,13.6 M22.8,4.4C23,3.3,24.1,2,24.7,1.1
	c0.5-0.7,1.7-1.3,2.2-0.6c0.6,0.8-0.3,2.1-1.1,3.1c-1,1.3-2.5,2.9-3.5,4.2c-1.8,2.1-3.3,4.4-4.8,6.8c-1.2,2-2.4,3.9-3.5,6
	c-2,4.1-3.6,8.3-4.5,12.8c0,0.3-0.1,0.5-0.2,0.8c-0.1,0.4-0.2,0.7-0.6,0.8c-0.4,0.1-0.7-0.2-0.9-0.5c-0.3-0.4-0.5-0.8-0.6-1.2
	c-1.1-3.3-2.8-6.4-3.9-9.7c-1.2-3.7-2-5.8-2.5-9.7c-0.1-0.9-0.1-1.8-0.1-2.8c0-0.4,0-0.8,0.5-1c0.5,0.2,0.5,0.6,0.6,1
	c1.2,4.4,2,7.2,3.3,11.6c0.6,2.2,1.4,4.3,2.4,6.3c0.1,0.2,0.1,0.4,0.5,0.5c0.6-0.8,0.7-1.8,1.1-2.8c1.5-3.7,3.4-7.3,5.3-10.8
	c0.8-1.4,1.5-2.8,2.8-3.8l0,0c0.1,0.2,0,0.8,0.5,0.3c0.3-0.3,0.4-0.7,0.4-1.1c0-0.1,0.1-0.1,0.2-0.1c0.5-0.6,0.9-1.1,1.4-1.7
	c0.6-0.7,1.1-1.4,0.8-2.3C20.8,7,21,7.6,21.3,7.3c0.4-0.5,1.1-0.9,0.8-1.5c-0.4-0.9,0.2-0.9,0.6-1.2c0,0.2-0.1,0.5,0.2,0.4
	c0.3-0.1,0.6-0.3,0.4-0.7C23.2,4.1,23,4.3,22.8,4.4"/>
</svg>
