<?xml version="1.0" encoding="utf-8"?>
<!-- Generator: Adobe Illustrator 22.0.1, SVG Export Plug-In . SVG Version: 6.00 Build 0)  -->
<svg version="1.1" id="Layer_1" xmlns="http://www.w3.org/2000/svg" xmlns:xlink="http://www.w3.org/1999/xlink" x="0px" y="0px"
	 viewBox="0 0 28.5 38" style="enable-background:new 0 0 28.5 38;" xml:space="preserve">
<style type="text/css">
	.st0{opacity:0.5;}
	.st1{clip-path:url(#SVGID_2_);}
	.st2{fill:#FFFFFF;}
	.st3{opacity:7.000730e-02;clip-path:url(#SVGID_6_);}
	.st4{clip-path:url(#SVGID_8_);}
	.st5{clip-path:url(#SVGID_10_);fill:url(#SVGID_11_);}
	.st6{fill:#232323;}
	.st7{fill:#B49256;}
	.st8{clip-path:url(#SVGID_13_);fill:#B49256;}
	.st9{fill:none;stroke:#B49256;}
	.st10{fill:none;stroke:#B49256;stroke-width:3;}
	.st11{clip-path:url(#SVGID_15_);fill:none;stroke:#B49256;}
	.st12{clip-path:url(#SVGID_17_);}
	.st13{clip-path:url(#SVGID_21_);}
	.st14{fill:#F7F7F7;}
	.st15{clip-path:url(#SVGID_25_);}
	.st16{clip-path:url(#SVGID_29_);fill:none;stroke:#232323;stroke-width:0.5;}
	.st17{clip-path:url(#SVGID_31_);fill:none;stroke:#B49256;}
	.st18{clip-path:url(#SVGID_33_);fill:none;stroke:#B49256;}
	.st19{clip-path:url(#SVGID_35_);fill:none;stroke:#B49256;}
	.st20{clip-path:url(#SVGID_37_);}
	.st21{clip-path:url(#SVGID_41_);}
	.st22{clip-path:url(#SVGID_45_);}
	.st23{clip-path:url(#SVGID_49_);fill:none;stroke:#B49256;}
	.st24{clip-path:url(#SVGID_51_);fill:none;stroke:#B49256;}
	.st25{clip-path:url(#SVGID_53_);}
	.st26{clip-path:url(#SVGID_57_);}
	.st27{clip-path:url(#SVGID_61_);}
	.st28{clip-path:url(#SVGID_65_);}
	.st29{clip-path:url(#SVGID_69_);}
	.st30{clip-path:url(#SVGID_73_);}
	.st31{filter:url(#Adobe_OpacityMaskFilter);}
	.st32{clip-path:url(#SVGID_75_);fill:url(#SVGID_77_);}
	.st33{clip-path:url(#SVGID_75_);mask:url(#SVGID_76_);}
	.st34{clip-path:url(#SVGID_79_);fill:#232323;}
	.st35{clip-path:url(#SVGID_73_);fill:none;stroke:#FFFFFF;}
	.st36{clip-path:url(#SVGID_81_);fill:#FFFFFF;}
	.st37{filter:url(#Adobe_OpacityMaskFilter_1_);}
	.st38{clip-path:url(#SVGID_83_);}
	.st39{clip-path:url(#SVGID_83_);mask:url(#SVGID_84_);}
	.st40{opacity:0.55;clip-path:url(#SVGID_88_);}
	.st41{clip-path:url(#SVGID_90_);fill:none;stroke:#B49256;}
	.st42{clip-path:url(#SVGID_92_);fill:none;stroke:#B49256;}
	.st43{clip-path:url(#SVGID_94_);fill:#B49256;}
	.st44{clip-path:url(#SVGID_96_);fill:#B49256;}
	.st45{clip-path:url(#SVGID_98_);fill:#B49256;}
	.st46{clip-path:url(#SVGID_100_);fill:#B49256;}
	.st47{clip-path:url(#SVGID_102_);fill:#B49256;}
	.st48{clip-path:url(#SVGID_104_);fill:#B49256;}
	.st49{clip-path:url(#SVGID_106_);fill:#B49256;}
	.st50{clip-path:url(#SVGID_108_);fill:#B49256;}
	.st51{clip-path:url(#SVGID_110_);}
	.st52{clip-path:url(#SVGID_114_);}
	.st53{clip-path:url(#SVGID_118_);}
	.st54{clip-path:url(#SVGID_122_);fill:#B49256;}
	.st55{clip-path:url(#SVGID_124_);fill:#B49256;}
	.st56{clip-path:url(#SVGID_126_);fill:#B49256;}
	.st57{clip-path:url(#SVGID_128_);}
	.st58{clip-path:url(#SVGID_132_);}
	.st59{clip-path:url(#SVGID_136_);}
	.st60{clip-path:url(#SVGID_140_);}
	.st61{clip-path:url(#SVGID_144_);}
	.st62{clip-path:url(#SVGID_148_);}
	.st63{clip-path:url(#SVGID_152_);}
	.st64{clip-path:url(#SVGID_156_);}
	.st65{clip-path:url(#SVGID_160_);}
	.st66{clip-path:url(#SVGID_164_);}
	.st67{clip-path:url(#SVGID_168_);}
	.st68{clip-path:url(#SVGID_172_);fill:none;stroke:#B49256;}
	.st69{clip-path:url(#SVGID_174_);fill:none;stroke:#B49256;}
	.st70{clip-path:url(#SVGID_176_);}
	.st71{clip-path:url(#SVGID_180_);}
	.st72{clip-path:url(#SVGID_184_);}
	.st73{clip-path:url(#SVGID_188_);}
	.st74{clip-path:url(#SVGID_192_);fill:none;stroke:#B49256;}
	.st75{clip-path:url(#SVGID_194_);fill:none;stroke:#B49256;}
	.st76{clip-path:url(#SVGID_196_);}
	.st77{filter:url(#Adobe_OpacityMaskFilter_2_);}
	.st78{mask:url(#SVGID_199_);}
	.st79{opacity:5.000310e-02;clip-path:url(#SVGID_203_);fill:#232323;}
	.st80{fill:none;}
	.st81{opacity:7.000730e-02;clip-path:url(#SVGID_205_);}
	.st82{clip-path:url(#SVGID_207_);}
	.st83{clip-path:url(#SVGID_209_);fill:url(#SVGID_210_);}
	.st84{opacity:0.9;}
	.st85{filter:url(#Adobe_OpacityMaskFilter_3_);}
	.st86{clip-path:url(#SVGID_212_);}
	.st87{clip-path:url(#SVGID_212_);mask:url(#SVGID_213_);}
	.st88{opacity:5.000310e-02;clip-path:url(#SVGID_217_);fill:#232323;}
	.st89{clip-path:url(#SVGID_212_);fill:#B49256;}
	.st90{filter:url(#Adobe_OpacityMaskFilter_4_);}
	.st91{clip-path:url(#SVGID_219_);}
	.st92{clip-path:url(#SVGID_219_);mask:url(#SVGID_220_);}
	.st93{opacity:5.000310e-02;clip-path:url(#SVGID_224_);fill:#232323;}
	.st94{clip-path:url(#SVGID_219_);fill:#B49256;}
	.st95{clip-path:url(#SVGID_226_);fill:none;stroke:#525252;stroke-width:0;stroke-linejoin:round;stroke-miterlimit:4.684;}
	.st96{clip-path:url(#SVGID_228_);fill:none;stroke:#525252;stroke-width:0;stroke-linejoin:round;stroke-miterlimit:4.684;}
	.st97{clip-path:url(#SVGID_230_);fill:none;stroke:#525252;stroke-width:0;stroke-linejoin:round;stroke-miterlimit:4.684;}
	.st98{fill:none;stroke:#232323;}
	.st99{clip-path:url(#SVGID_232_);fill:none;stroke:#525252;stroke-width:0;stroke-linejoin:round;stroke-miterlimit:4.684;}
	.st100{fill:#525252;}
	.st101{clip-path:url(#SVGID_234_);fill:none;stroke:#525252;stroke-width:0;stroke-linejoin:round;stroke-miterlimit:4.684;}
	.st102{clip-path:url(#SVGID_236_);fill:none;stroke:#525252;stroke-width:0;stroke-linejoin:round;stroke-miterlimit:4.684;}
	.st103{fill:none;stroke:#525252;stroke-width:0;stroke-linejoin:round;stroke-miterlimit:4.684;}
</style>
<g>
	<defs>
		<path id="SVGID_204_" d="M805.6-432.6c0,0,0.1,0,0.3,0c-0.1-0.9-0.1-1.4-0.1-1.4C805.7-434,805.6-433.6,805.6-432.6 M1331.5-432.6
			c-21,2.1-512.1,0.1-525.7,0c1.7,31.1,4.6,568.2,4.6,568.2h381.8c52.4,0,424.4-2.1,424.4-2.1c0-4.3-1.6-81.2-1.6-301.2
			c0-220-8.2-256.3-8.2-256.3c-15.6-9-85.8-11.5-151.6-11.5C1396.7-435.6,1341.6-433.6,1331.5-432.6"/>
	</defs>
	<clipPath id="SVGID_2_">
		<use xlink:href="#SVGID_204_"  style="overflow:visible;"/>
	</clipPath>
	<g style="opacity:7.000730e-02;clip-path:url(#SVGID_2_);">
		<g>
			<defs>
				<rect id="SVGID_206_" x="544.2" y="-828" width="1331.2" height="1362.8"/>
			</defs>
			<clipPath id="SVGID_4_">
				<use xlink:href="#SVGID_206_"  style="overflow:visible;"/>
			</clipPath>
			<g style="clip-path:url(#SVGID_4_);">
				<defs>
					<polygon id="SVGID_208_" points="1353.7,533.4 1874,-241.7 1065.9,-826.5 545.6,-51.4 					"/>
				</defs>
				<clipPath id="SVGID_6_">
					<use xlink:href="#SVGID_208_"  style="overflow:visible;"/>
				</clipPath>
				
					<linearGradient id="SVGID_8_" gradientUnits="userSpaceOnUse" x1="107.44" y1="7658.5151" x2="108.44" y2="7658.5151" gradientTransform="matrix(520.2939 -775.1183 -756.7619 -547.6407 5740721.5 4277634.5)">
					<stop  offset="0" style="stop-color:#FFFFFF"/>
					<stop  offset="3.090910e-03" style="stop-color:#FFFFFF"/>
					<stop  offset="0.1004" style="stop-color:#FCFCFC"/>
					<stop  offset="0.1672" style="stop-color:#F3F3F3"/>
					<stop  offset="0.2248" style="stop-color:#E4E4E4"/>
					<stop  offset="0.2772" style="stop-color:#CECECE"/>
					<stop  offset="0.3261" style="stop-color:#B2B2B2"/>
					<stop  offset="0.3724" style="stop-color:#909090"/>
					<stop  offset="0.4167" style="stop-color:#676767"/>
					<stop  offset="0.459" style="stop-color:#383838"/>
					<stop  offset="0.4991" style="stop-color:#030303"/>
					<stop  offset="0.5014" style="stop-color:#000000"/>
					<stop  offset="0.5169" style="stop-color:#0D0D0D"/>
					<stop  offset="0.5791" style="stop-color:#3C3C3C"/>
					<stop  offset="0.6433" style="stop-color:#646464"/>
					<stop  offset="0.7088" style="stop-color:#858585"/>
					<stop  offset="0.7758" style="stop-color:#9F9F9F"/>
					<stop  offset="0.845" style="stop-color:#B1B1B1"/>
					<stop  offset="0.9178" style="stop-color:#BBBBBB"/>
					<stop  offset="1" style="stop-color:#BFBFBF"/>
				</linearGradient>
				<polygon style="clip-path:url(#SVGID_6_);fill:url(#SVGID_8_);" points="-68.8,88.8 979.9,-1473.6 2488.4,-381.9 1439.7,1180.4 
									"/>
			</g>
		</g>
	</g>
</g>
<path class="st7" d="M16.7,15c0,0.3-0.6,0.4-0.1,0.8C16.7,15.5,17,15.4,16.7,15 M23.1,5.8c0.2-1.1,1.3-2.4,1.9-3.3
	c0.5-0.7,1.7-1.3,2.2-0.6c0.6,0.8-0.3,2.1-1.1,3.1c-1,1.3-2.5,2.9-3.5,4.2c-1.8,2.1-3.3,4.4-4.8,6.8c-1.2,2-2.4,3.9-3.5,6
	c-2,4.1-3.6,8.3-4.5,12.8c0,0.3-0.1,0.5-0.2,0.8c-0.1,0.4-0.2,0.7-0.6,0.8c-0.4,0.1-0.7-0.2-0.9-0.5c-0.3-0.4-0.5-0.8-0.6-1.2
	c-1.1-3.3-2.8-6.4-3.9-9.7c-1.2-3.7-2-5.8-2.5-9.7C1,14.2,1,13.2,1,12.3c0-0.4,0-0.8,0.5-1c0.5,0.2,0.5,0.6,0.6,1
	c1.2,4.4,2,7.2,3.3,11.6c0.6,2.2,1.4,4.3,2.4,6.4c0.1,0.2,0.1,0.4,0.5,0.5c0.6-0.8,0.7-1.8,1.1-2.8c1.5-3.7,3.4-7.3,5.3-10.8
	c0.8-1.4,1.5-2.8,2.8-3.8l0,0c0.1,0.2,0,0.8,0.5,0.3c0.3-0.3,0.4-0.7,0.4-1.1c0-0.1,0.1-0.1,0.2-0.1c0.5-0.6,0.9-1.1,1.4-1.7
	c0.6-0.7,1.1-1.4,0.8-2.3c0.4-0.2,0.6,0.4,0.9,0.1c0.4-0.5,1.1-0.9,0.8-1.5c-0.4-0.9,0.2-0.9,0.6-1.2c0,0.2-0.1,0.5,0.2,0.4
	c0.3-0.1,0.6-0.3,0.4-0.7C23.5,5.5,23.3,5.6,23.1,5.8"/>
</svg>
