<?xml version="1.0" encoding="utf-8"?>
<!-- Generator: Adobe Illustrator 22.0.1, SVG Export Plug-In . SVG Version: 6.00 Build 0)  -->
<svg version="1.1" id="Layer_1" xmlns="http://www.w3.org/2000/svg" xmlns:xlink="http://www.w3.org/1999/xlink" x="0px" y="0px"
	 viewBox="0 0 316 29.5" style="enable-background:new 0 0 316 29.5;" xml:space="preserve">
<style type="text/css">
	.st0{fill:#232323;}
	.st1{fill:#B49256;}
	.st2{fill:#FFFFFF;}
	.st3{clip-path:url(#SVGID_2_);fill:#B49256;}
	.st4{fill:none;stroke:#B49256;}
	.st5{fill:none;stroke:#B49256;stroke-width:3;}
	.st6{clip-path:url(#SVGID_4_);fill:none;stroke:#B49256;}
	.st7{clip-path:url(#SVGID_6_);}
	.st8{clip-path:url(#SVGID_10_);}
	.st9{fill:#F7F7F7;}
	.st10{clip-path:url(#SVGID_14_);}
	.st11{clip-path:url(#SVGID_18_);fill:none;stroke:#232323;stroke-width:0.5;}
	.st12{clip-path:url(#SVGID_20_);fill:none;stroke:#B49256;}
	.st13{clip-path:url(#SVGID_22_);fill:none;stroke:#B49256;}
	.st14{clip-path:url(#SVGID_24_);fill:none;stroke:#B49256;}
	.st15{clip-path:url(#SVGID_26_);}
	.st16{clip-path:url(#SVGID_30_);}
	.st17{clip-path:url(#SVGID_34_);}
	.st18{clip-path:url(#SVGID_38_);fill:none;stroke:#B49256;}
	.st19{clip-path:url(#SVGID_40_);fill:none;stroke:#B49256;}
	.st20{clip-path:url(#SVGID_42_);}
	.st21{clip-path:url(#SVGID_46_);}
	.st22{clip-path:url(#SVGID_50_);}
	.st23{clip-path:url(#SVGID_54_);}
	.st24{clip-path:url(#SVGID_58_);}
	.st25{filter:url(#Adobe_OpacityMaskFilter);}
	.st26{clip-path:url(#SVGID_62_);fill:url(#SVGID_64_);}
	.st27{clip-path:url(#SVGID_62_);mask:url(#SVGID_63_);}
	.st28{clip-path:url(#SVGID_66_);fill:#232323;}
	.st29{fill:none;stroke:#FFFFFF;}
	.st30{fill:none;}
	.st31{filter:url(#Adobe_OpacityMaskFilter_1_);}
	.st32{mask:url(#SVGID_67_);}
	.st33{opacity:0.55;clip-path:url(#SVGID_71_);}
	.st34{clip-path:url(#SVGID_73_);fill:none;stroke:#B49256;}
	.st35{clip-path:url(#SVGID_75_);fill:none;stroke:#B49256;}
	.st36{clip-path:url(#SVGID_77_);fill:#B49256;}
	.st37{clip-path:url(#SVGID_79_);fill:#B49256;}
	.st38{clip-path:url(#SVGID_81_);fill:#B49256;}
	.st39{clip-path:url(#SVGID_83_);fill:#B49256;}
	.st40{clip-path:url(#SVGID_85_);fill:#B49256;}
	.st41{clip-path:url(#SVGID_87_);fill:#B49256;}
	.st42{clip-path:url(#SVGID_89_);fill:#B49256;}
	.st43{clip-path:url(#SVGID_91_);fill:#B49256;}
	.st44{clip-path:url(#SVGID_93_);}
	.st45{clip-path:url(#SVGID_97_);}
	.st46{clip-path:url(#SVGID_101_);}
	.st47{clip-path:url(#SVGID_105_);fill:#B49256;}
	.st48{clip-path:url(#SVGID_107_);fill:#B49256;}
	.st49{clip-path:url(#SVGID_109_);fill:#B49256;}
	.st50{clip-path:url(#SVGID_111_);fill:none;stroke:#B49256;}
	.st51{clip-path:url(#SVGID_113_);fill:none;stroke:#B49256;}
	.st52{clip-path:url(#SVGID_115_);}
	.st53{clip-path:url(#SVGID_119_);}
	.st54{clip-path:url(#SVGID_123_);}
	.st55{clip-path:url(#SVGID_127_);}
	.st56{clip-path:url(#SVGID_131_);}
	.st57{clip-path:url(#SVGID_135_);}
	.st58{clip-path:url(#SVGID_139_);}
	.st59{clip-path:url(#SVGID_143_);}
	.st60{clip-path:url(#SVGID_147_);}
	.st61{clip-path:url(#SVGID_151_);}
	.st62{clip-path:url(#SVGID_155_);}
	.st63{clip-path:url(#SVGID_159_);}
	.st64{clip-path:url(#SVGID_163_);}
	.st65{clip-path:url(#SVGID_167_);}
	.st66{clip-path:url(#SVGID_171_);}
	.st67{clip-path:url(#SVGID_175_);fill:none;stroke:#B49256;}
	.st68{clip-path:url(#SVGID_177_);fill:none;stroke:#B49256;}
</style>
<g>
	<path class="st1" d="M18.8,7.7l0.7-1.4H20v6h-0.3c-0.5,0-0.6-0.4-0.9-1.2c-0.6-1.7-1.6-4-4.9-4c-4.1,0-5.8,3.6-5.8,8.7
		c0,5.3,2,8.2,5.8,8.2c3.2,0,4.6-2.1,5.2-3.8c0.4-1.2,0.5-2.2,1.2-2.2h0.3V25h-0.6l-0.8-1.6c-1.9,1.2-3.9,1.7-5.7,1.7
		c-5.8,0-9.3-3.9-9.3-9.2c0-5.3,3.6-9.6,9.4-9.6C15.6,6.3,17.1,6.7,18.8,7.7z"/>
	<path class="st1" d="M49,16.1c0,5.8-1.8,9-7.4,9c-4.8,0-7.8-1.8-7.8-7v-9c0-1.9-2.1-1.1-2.1-2.1V6.6h7.8V7c0,1.1-2.3,0.2-2.3,2.1
		V18c0,3.6,1.3,6,5.5,6c3.4,0,5.3-2.4,5.3-6.7V9.3C48,7.3,45.2,8,45.2,7V6.6h6.3V7c0,1.1-2.5,0.4-2.5,2.3V16.1z"/>
	<path class="st1" d="M62.4,21.5c0-1.1,0.8-1.6,1.5-1.6c1.1,0,1.9,0.9,1.9,2.1c0,0.4-0.1,1-0.3,1.5c0.9,0.5,1.9,0.7,3.1,0.7
		c2.3,0,4.8-0.9,4.8-3.2c0-4.6-10.3-4.6-10.3-9.7c0-3.3,3.1-5,6.6-5c3.3,0,5.9,1.4,5.9,3.3c0,1-0.7,1.6-1.5,1.6
		c-1.1,0-1.8-0.9-1.8-2.1c0-0.3,0.1-0.9,0.3-1.5c-0.7-0.2-1.6-0.4-2.5-0.4c-1.8,0-3.8,0.6-3.8,2.6c0,3.8,10.3,3.9,10.3,9.6
		c0,3.8-3.6,5.6-7.8,5.6C65,25.1,62.4,23.4,62.4,21.5z"/>
	<path class="st1" d="M87.8,6.3c1.8,0.2,3.6,0.2,7.9,0.2c4.2,0,6-0.1,7.9-0.2l0.3,0.2l0.6,5.4c-0.1,0-0.3,0.1-0.3,0.1
		c-0.4,0.1-0.5-0.2-0.7-0.5c-1.5-3.2-1.9-3.9-4.7-3.9h-1.4v14.8c0,1.9,2.3,1.1,2.3,2.1v0.3H92v-0.3c0-1,2.1-0.3,2.1-2.1V7.5h-1.5
		c-2.8,0-3.3,0.6-4.7,4c-0.2,0.4-0.4,0.5-0.6,0.5L86.9,12l0.6-5.4C87.6,6.5,87.7,6.4,87.8,6.3z"/>
	<path class="st1" d="M124.7,6.3c6.1,0,9.5,4.3,9.5,9.3c0,5.1-3.6,9.4-9.5,9.4c-6.2,0-9.3-4.3-9.3-9.4
		C115.3,10.6,118.9,6.3,124.7,6.3z M124.8,24.2c4.2,0,5.5-4.2,5.5-8.4c0-4.3-1.3-8.6-5.6-8.6c-4.1,0-5.5,4.4-5.5,8.5
		C119.2,20.1,120.5,24.2,124.8,24.2z"/>
	<path class="st1" d="M169.2,6.6v0.5c0,0.9-2.3,0.4-2.3,2.4c0,0.1,0,0.1,0.6,12.8c0.1,2.1,2.3,1.1,2.3,2.2v0.3h-7.7v-0.3
		c0-1,2.1-0.3,2.1-2c0-2.2-0.3-5.1-0.7-13.6h-0.1c-2,5.4-4,10.8-6,16.1c-0.3,0-0.6,0-1,0L151,12.3c-0.5-1.1-1-2.2-1.5-3.6h-0.1
		l-0.6,13.4c-0.1,2.1,2.6,1.2,2.6,2.3v0.4h-6.2v-0.4c0-0.6,0.6-0.6,1.3-0.8c0.9-0.4,1.2-1.2,1.2-2.6c0.6-11.4,0.6-11.4,0.6-11.4
		c0-1.1-0.4-1.4-1.2-1.7c-0.5-0.2-1.1-0.3-1.1-0.8V6.6h6l4.7,11.4c0.3,0.8,0.7,1.9,0.9,2.8h0.2c1.8-4.7,3.5-9.5,5.3-14.2H169.2z"/>
	<path class="st1" d="M181,19.2v-1.7h6.7v1.7H181z"/>
	<path class="st1" d="M222.1,6.6v0.5c0,0.9-2.3,0.4-2.3,2.4c0,0.1,0,0.1,0.6,12.8c0.1,2.1,2.3,1.1,2.3,2.2v0.3H215v-0.3
		c0-1,2.1-0.3,2.1-2c0-2.2-0.3-5.1-0.7-13.6h-0.1c-2,5.4-4,10.8-6,16.1c-0.3,0-0.6,0-1,0l-5.4-12.7c-0.5-1.1-1-2.2-1.5-3.6h-0.1
		l-0.6,13.4c-0.1,2.1,2.6,1.2,2.6,2.3v0.4h-6.2v-0.4c0-0.6,0.6-0.6,1.3-0.8c0.9-0.4,1.2-1.2,1.2-2.6c0.6-11.4,0.6-11.4,0.6-11.4
		c0-1.1-0.4-1.4-1.2-1.7c-0.5-0.2-1.1-0.3-1.1-0.8V6.6h6l4.7,11.4c0.3,0.8,0.7,1.9,0.9,2.8h0.2c1.8-4.7,3.5-9.5,5.3-14.2H222.1z"/>
	<path class="st1" d="M237.1,21.5c-0.1,0.4-0.2,0.7-0.2,1c0,1.7,2.1,1.1,2.1,2v0.4H233v-0.4c0-0.9,1.9-0.1,2.9-2.8l5.9-15.1
		c0.4-0.1,1.2-0.1,1.7-0.1l6.3,15.5c1.1,2.6,2.3,1.5,2.3,2.6v0.3h-7.3v-0.4c0-0.9,1.6-0.4,1.6-1.6c0-0.2,0-0.5-0.2-0.8l-1.2-2.9
		h-7.2L237.1,21.5z M241.5,9.9l-3.2,8.4h6.5l-1.4-3.5c-0.4-1-1.3-3.3-1.8-4.9H241.5z"/>
	<path class="st1" d="M262.7,24.4c0-0.9,2.1,0,2.1-2.3V9.3c0-2.2-2.1-1.3-2.1-2.3V6.6h7.3c6.1,0,11.2,2.5,11.2,8.9
		c0,3.5-1.9,9.3-10.7,9.3h-7.8V24.4z M268.1,22.2c0,1,0.4,1.7,2.1,1.7c2.9,0,7.2-1.8,7.2-8c0-5.6-2.4-8.4-7.5-8.4h-1.8V22.2z"/>
	<path class="st1" d="M302.5,23.9c3,0,3.9-1.6,5.6-5.1c0.1-0.2,0.3-0.7,0.7-0.5l0.3,0.1l-1.5,6.4l-0.2,0.2c-2-0.1-4.2-0.1-8-0.1
		h-6.8v-0.4c0-1,2.2-0.1,2.2-2.3V9.3c0-2.2-2.2-1.3-2.2-2.3V6.6h5.2c2.7,0,5.8-0.1,8.9-0.2l0.2,0.2l0.6,5.1l-0.3,0.1
		c-0.4,0.1-0.6-0.2-0.8-0.5c-1.5-3.3-1.8-3.6-5-3.6h-3.3v7.3h2.4c3.2,0,2-3.1,3.1-3.1h0.3v7.2h-0.4c-1.1,0,0.1-3.2-2.9-3.2h-2.5v6.4
		c0,1.1,0.4,1.8,2.1,1.8H302.5z"/>
</g>
</svg>
