<?xml version="1.0" encoding="utf-8"?>
<!-- Generator: Adobe Illustrator 22.0.1, SVG Export Plug-In . SVG Version: 6.00 Build 0)  -->
<svg version="1.1" id="Layer_1" xmlns="http://www.w3.org/2000/svg" xmlns:xlink="http://www.w3.org/1999/xlink" x="0px" y="0px"
	 viewBox="0 0 20 20" style="enable-background:new 0 0 20 20;" xml:space="preserve">
<style type="text/css">
	.st0{fill:#232323;}
	.st1{fill:#B49256;}
	.st2{fill:#FFFFFF;}
	.st3{clip-path:url(#SVGID_2_);fill:#B49256;}
	.st4{fill:none;}
	.st5{fill:none;stroke:#B49256;}
	.st6{fill:none;stroke:#B49256;stroke-width:3;}
	.st7{clip-path:url(#SVGID_4_);}
	.st8{clip-path:url(#SVGID_8_);}
	.st9{clip-path:url(#SVGID_12_);}
	.st10{clip-path:url(#SVGID_16_);}
	.st11{clip-path:url(#SVGID_20_);}
	.st12{fill:#F7F7F7;}
	.st13{clip-path:url(#SVGID_24_);}
	.st14{clip-path:url(#SVGID_28_);fill:none;stroke:#232323;stroke-width:0.5;}
	.st15{clip-path:url(#SVGID_30_);fill:none;stroke:#B49256;}
	.st16{clip-path:url(#SVGID_32_);fill:none;stroke:#B49256;}
	.st17{clip-path:url(#SVGID_34_);fill:none;stroke:#B49256;}
	.st18{clip-path:url(#SVGID_36_);}
	.st19{clip-path:url(#SVGID_40_);}
	.st20{clip-path:url(#SVGID_44_);}
	.st21{clip-path:url(#SVGID_48_);fill:none;stroke:#B49256;}
	.st22{clip-path:url(#SVGID_50_);fill:none;stroke:#B49256;}
	.st23{clip-path:url(#SVGID_52_);}
	.st24{clip-path:url(#SVGID_56_);}
	.st25{clip-path:url(#SVGID_60_);}
	.st26{clip-path:url(#SVGID_64_);}
	.st27{clip-path:url(#SVGID_68_);}
	.st28{filter:url(#Adobe_OpacityMaskFilter);}
	.st29{clip-path:url(#SVGID_72_);fill:url(#SVGID_74_);}
	.st30{clip-path:url(#SVGID_72_);mask:url(#SVGID_73_);}
	.st31{clip-path:url(#SVGID_76_);fill:#232323;}
	.st32{fill:none;stroke:#FFFFFF;}
	.st33{filter:url(#Adobe_OpacityMaskFilter_1_);}
	.st34{mask:url(#SVGID_77_);}
	.st35{opacity:0.55;clip-path:url(#SVGID_81_);}
	.st36{filter:url(#Adobe_OpacityMaskFilter_2_);}
	.st37{mask:url(#SVGID_82_);}
	.st38{opacity:0.55;clip-path:url(#SVGID_86_);}
	.st39{clip-path:url(#SVGID_88_);fill:none;stroke:#B49256;}
	.st40{clip-path:url(#SVGID_90_);fill:none;stroke:#B49256;}
	.st41{clip-path:url(#SVGID_92_);fill:#B49256;}
	.st42{clip-path:url(#SVGID_94_);fill:#B49256;}
	.st43{clip-path:url(#SVGID_96_);fill:#B49256;}
	.st44{clip-path:url(#SVGID_98_);fill:#B49256;}
	.st45{clip-path:url(#SVGID_100_);fill:#B49256;}
	.st46{clip-path:url(#SVGID_102_);fill:#B49256;}
	.st47{clip-path:url(#SVGID_104_);fill:#B49256;}
	.st48{clip-path:url(#SVGID_106_);}
	.st49{clip-path:url(#SVGID_110_);}
	.st50{clip-path:url(#SVGID_114_);}
	.st51{clip-path:url(#SVGID_118_);fill:#B49256;}
	.st52{clip-path:url(#SVGID_120_);fill:#B49256;}
	.st53{clip-path:url(#SVGID_122_);fill:#B49256;}
	.st54{clip-path:url(#SVGID_124_);fill:none;stroke:#B49256;}
	.st55{clip-path:url(#SVGID_126_);}
	.st56{clip-path:url(#SVGID_130_);}
	.st57{clip-path:url(#SVGID_134_);}
	.st58{clip-path:url(#SVGID_138_);}
	.st59{clip-path:url(#SVGID_142_);}
	.st60{clip-path:url(#SVGID_146_);}
	.st61{clip-path:url(#SVGID_150_);}
	.st62{clip-path:url(#SVGID_154_);}
	.st63{clip-path:url(#SVGID_158_);}
	.st64{clip-path:url(#SVGID_162_);}
	.st65{clip-path:url(#SVGID_166_);}
	.st66{clip-path:url(#SVGID_170_);}
	.st67{clip-path:url(#SVGID_174_);}
	.st68{clip-path:url(#SVGID_178_);}
	.st69{clip-path:url(#SVGID_182_);}
	.st70{clip-path:url(#SVGID_186_);fill:none;stroke:#B49256;}
	.st71{clip-path:url(#SVGID_188_);fill:none;stroke:#B49256;}
</style>
<rect x="-925.4" y="-5730.9" class="st4" width="1600" height="8550"/>
<path class="st1" d="M16.2,17.7l-1.4-3c-0.2-0.4-0.7-0.7-1.1-0.7c-0.1,0-0.2,0-0.4,0.1l-1.6,0.4c-0.2-0.2-1-1-2.3-3.9
	c-1.4-2.9-1.5-4-1.5-4.3l1.4-1c0.5-0.3,0.7-1,0.4-1.6l-1.4-3C8,0.3,7.6,0,7.1,0C6.8,0,6.6,0.1,6.3,0.2L5.5,0.7
	C4.8,1.2,4.3,1.9,4,2.8C3.7,3.6,3.7,4.6,3.8,5.7c0.2,1.9,0.9,4.2,2,6.6c1,2,2.1,3.9,3.3,5.2c1.5,1.7,2.9,2.5,4.3,2.5
	c0.4,0,0.8-0.1,1.1-0.2l0.9-0.3c0.4-0.1,0.7-0.4,0.8-0.7S16.3,18,16.2,17.7"/>
<rect x="-372.9" y="-5730.9" class="st4" width="1600" height="8550"/>
</svg>
