<?xml version="1.0" encoding="utf-8"?>
<!-- Generator: Adobe Illustrator 22.0.1, SVG Export Plug-In . SVG Version: 6.00 Build 0)  -->
<svg version="1.1" id="Layer_1" xmlns="http://www.w3.org/2000/svg" xmlns:xlink="http://www.w3.org/1999/xlink" x="0px" y="0px"
	 viewBox="0 0 20 20" style="enable-background:new 0 0 20 20;" xml:space="preserve">
<style type="text/css">
	.st0{fill:#232323;}
	.st1{fill:#B49256;}
	.st2{fill:#FFFFFF;}
	.st3{clip-path:url(#SVGID_2_);fill:#B49256;}
	.st4{fill:none;}
	.st5{fill:none;stroke:#B49256;}
	.st6{fill:none;stroke:#B49256;stroke-width:3;}
	.st7{clip-path:url(#SVGID_4_);}
	.st8{clip-path:url(#SVGID_8_);}
	.st9{clip-path:url(#SVGID_12_);}
	.st10{clip-path:url(#SVGID_16_);}
	.st11{clip-path:url(#SVGID_20_);}
	.st12{fill:#F7F7F7;}
	.st13{clip-path:url(#SVGID_24_);}
	.st14{clip-path:url(#SVGID_28_);fill:none;stroke:#232323;stroke-width:0.5;}
	.st15{clip-path:url(#SVGID_30_);fill:none;stroke:#B49256;}
	.st16{clip-path:url(#SVGID_32_);fill:none;stroke:#B49256;}
	.st17{clip-path:url(#SVGID_34_);fill:none;stroke:#B49256;}
	.st18{clip-path:url(#SVGID_36_);}
	.st19{clip-path:url(#SVGID_40_);}
	.st20{clip-path:url(#SVGID_44_);}
	.st21{clip-path:url(#SVGID_48_);fill:none;stroke:#B49256;}
	.st22{clip-path:url(#SVGID_50_);fill:none;stroke:#B49256;}
	.st23{clip-path:url(#SVGID_52_);}
	.st24{clip-path:url(#SVGID_56_);}
	.st25{clip-path:url(#SVGID_60_);}
	.st26{clip-path:url(#SVGID_64_);}
	.st27{clip-path:url(#SVGID_68_);}
	.st28{filter:url(#Adobe_OpacityMaskFilter);}
	.st29{clip-path:url(#SVGID_72_);fill:url(#SVGID_74_);}
	.st30{clip-path:url(#SVGID_72_);mask:url(#SVGID_73_);}
	.st31{clip-path:url(#SVGID_76_);fill:#232323;}
	.st32{fill:none;stroke:#FFFFFF;}
	.st33{filter:url(#Adobe_OpacityMaskFilter_1_);}
	.st34{mask:url(#SVGID_77_);}
	.st35{opacity:0.55;clip-path:url(#SVGID_81_);}
	.st36{filter:url(#Adobe_OpacityMaskFilter_2_);}
	.st37{mask:url(#SVGID_82_);}
	.st38{opacity:0.55;clip-path:url(#SVGID_86_);}
	.st39{clip-path:url(#SVGID_88_);fill:none;stroke:#B49256;}
	.st40{clip-path:url(#SVGID_90_);fill:none;stroke:#B49256;}
	.st41{clip-path:url(#SVGID_92_);fill:#B49256;}
	.st42{clip-path:url(#SVGID_94_);fill:#B49256;}
	.st43{clip-path:url(#SVGID_96_);fill:#B49256;}
	.st44{clip-path:url(#SVGID_98_);fill:#B49256;}
	.st45{clip-path:url(#SVGID_100_);fill:#B49256;}
	.st46{clip-path:url(#SVGID_102_);fill:#B49256;}
	.st47{clip-path:url(#SVGID_104_);fill:#B49256;}
	.st48{clip-path:url(#SVGID_106_);}
	.st49{clip-path:url(#SVGID_110_);}
	.st50{clip-path:url(#SVGID_114_);}
	.st51{clip-path:url(#SVGID_118_);fill:#B49256;}
	.st52{clip-path:url(#SVGID_120_);fill:#B49256;}
	.st53{clip-path:url(#SVGID_122_);fill:#B49256;}
	.st54{clip-path:url(#SVGID_124_);fill:none;stroke:#B49256;}
	.st55{clip-path:url(#SVGID_126_);}
	.st56{clip-path:url(#SVGID_130_);}
	.st57{clip-path:url(#SVGID_134_);}
	.st58{clip-path:url(#SVGID_138_);}
	.st59{clip-path:url(#SVGID_142_);}
	.st60{clip-path:url(#SVGID_146_);}
	.st61{clip-path:url(#SVGID_150_);}
	.st62{clip-path:url(#SVGID_154_);}
	.st63{clip-path:url(#SVGID_158_);}
	.st64{clip-path:url(#SVGID_162_);}
	.st65{clip-path:url(#SVGID_166_);}
	.st66{clip-path:url(#SVGID_170_);}
	.st67{clip-path:url(#SVGID_174_);}
	.st68{clip-path:url(#SVGID_178_);}
	.st69{clip-path:url(#SVGID_182_);}
	.st70{clip-path:url(#SVGID_186_);fill:none;stroke:#B49256;}
	.st71{clip-path:url(#SVGID_188_);fill:none;stroke:#B49256;}
</style>
<rect x="-916.8" y="-5574" class="st4" width="1600" height="8550"/>
<rect x="-364.4" y="-5574" class="st4" width="1600" height="8550"/>
<path class="st1" d="M10.6,17.8C10.6,17.8,10.6,17.8,10.6,17.8l0-1.2c0-0.4-0.3-0.6-0.6-0.6s-0.6,0.3-0.6,0.6v1.1c0,0,0,0.1,0,0.1
	c-3.8-0.3-6.9-3.4-7.2-7.2c0,0,0.1,0,0.1,0h1.1C3.7,10.6,4,10.4,4,10c0-0.4-0.3-0.6-0.6-0.6H2.2c0,0-0.1,0-0.1,0
	c0.3-3.8,3.4-6.9,7.2-7.2c0,0,0,0.1,0,0.1v1.1C9.4,3.7,9.6,4,10,4s0.6-0.3,0.6-0.6V2.2c0,0,0-0.1,0-0.1c3.8,0.3,6.9,3.4,7.2,7.2
	c0,0-0.1,0-0.1,0h-1.1C16.3,9.4,16,9.7,16,10c0,0.4,0.3,0.6,0.6,0.6h1.1c0,0,0.1,0,0.1,0C17.5,14.5,14.5,17.5,10.6,17.8 M17.1,2.9
	C15.2,1,12.7,0,10,0S4.8,1,2.9,2.9C1,4.8,0,7.3,0,10c0,2.7,1,5.2,2.9,7.1C4.8,19,7.3,20,10,20s5.2-1,7.1-2.9C19,15.2,20,12.7,20,10
	C20,7.3,19,4.8,17.1,2.9"/>
<path class="st1" d="M12.6,7.3l-1.5,1.4c-0.1,0-0.3-0.1-0.4-0.1c-0.1,0-0.2,0-0.3,0l-3-3.3c-0.2-0.3-0.6-0.3-0.9,0s-0.3,0.6,0,0.9
	l3,3.3c0,0.1-0.1,0.3-0.1,0.4c0,0.7,0.6,1.3,1.3,1.3c0.7,0,1.3-0.6,1.3-1.3c0-0.1,0-0.2,0-0.3l1.5-1.4c0.3-0.2,0.3-0.6,0-0.9
	C13.3,7.1,12.9,7.1,12.6,7.3"/>
</svg>
