<?xml version="1.0" encoding="utf-8"?>
<!-- Generator: Adobe Illustrator 22.0.1, SVG Export Plug-In . SVG Version: 6.00 Build 0)  -->
<svg version="1.1" id="Layer_1" xmlns="http://www.w3.org/2000/svg" xmlns:xlink="http://www.w3.org/1999/xlink" x="0px" y="0px"
	 viewBox="0 0 20 20" style="enable-background:new 0 0 20 20;" xml:space="preserve">
<style type="text/css">
	.st0{fill:#232323;}
	.st1{fill:#B49256;}
	.st2{fill:#FFFFFF;}
	.st3{clip-path:url(#SVGID_2_);fill:#B49256;}
	.st4{fill:none;}
	.st5{fill:none;stroke:#B49256;}
	.st6{fill:none;stroke:#B49256;stroke-width:3;}
	.st7{clip-path:url(#SVGID_4_);}
	.st8{clip-path:url(#SVGID_8_);}
	.st9{clip-path:url(#SVGID_12_);}
	.st10{clip-path:url(#SVGID_16_);}
	.st11{clip-path:url(#SVGID_20_);}
	.st12{fill:#F7F7F7;}
	.st13{clip-path:url(#SVGID_24_);}
	.st14{clip-path:url(#SVGID_28_);fill:none;stroke:#232323;stroke-width:0.5;}
	.st15{clip-path:url(#SVGID_30_);fill:none;stroke:#B49256;}
	.st16{clip-path:url(#SVGID_32_);fill:none;stroke:#B49256;}
	.st17{clip-path:url(#SVGID_34_);fill:none;stroke:#B49256;}
	.st18{clip-path:url(#SVGID_36_);}
	.st19{clip-path:url(#SVGID_40_);}
	.st20{clip-path:url(#SVGID_44_);}
	.st21{clip-path:url(#SVGID_48_);fill:none;stroke:#B49256;}
	.st22{clip-path:url(#SVGID_50_);fill:none;stroke:#B49256;}
	.st23{clip-path:url(#SVGID_52_);}
	.st24{clip-path:url(#SVGID_56_);}
	.st25{clip-path:url(#SVGID_60_);}
	.st26{clip-path:url(#SVGID_64_);}
	.st27{clip-path:url(#SVGID_68_);}
	.st28{filter:url(#Adobe_OpacityMaskFilter);}
	.st29{clip-path:url(#SVGID_72_);fill:url(#SVGID_74_);}
	.st30{clip-path:url(#SVGID_72_);mask:url(#SVGID_73_);}
	.st31{clip-path:url(#SVGID_76_);fill:#232323;}
	.st32{fill:none;stroke:#FFFFFF;}
	.st33{filter:url(#Adobe_OpacityMaskFilter_1_);}
	.st34{mask:url(#SVGID_77_);}
	.st35{opacity:0.55;clip-path:url(#SVGID_81_);}
	.st36{filter:url(#Adobe_OpacityMaskFilter_2_);}
	.st37{mask:url(#SVGID_82_);}
	.st38{opacity:0.55;clip-path:url(#SVGID_86_);}
	.st39{clip-path:url(#SVGID_88_);fill:none;stroke:#B49256;}
	.st40{clip-path:url(#SVGID_90_);fill:none;stroke:#B49256;}
	.st41{clip-path:url(#SVGID_92_);fill:#B49256;}
	.st42{clip-path:url(#SVGID_94_);fill:#B49256;}
	.st43{clip-path:url(#SVGID_96_);fill:#B49256;}
	.st44{clip-path:url(#SVGID_98_);fill:#B49256;}
	.st45{clip-path:url(#SVGID_100_);fill:#B49256;}
	.st46{clip-path:url(#SVGID_102_);}
	.st47{clip-path:url(#SVGID_106_);}
	.st48{clip-path:url(#SVGID_110_);}
	.st49{clip-path:url(#SVGID_114_);fill:#B49256;}
	.st50{clip-path:url(#SVGID_116_);fill:#B49256;}
	.st51{clip-path:url(#SVGID_118_);fill:#B49256;}
	.st52{clip-path:url(#SVGID_120_);fill:none;stroke:#B49256;}
	.st53{clip-path:url(#SVGID_122_);}
	.st54{clip-path:url(#SVGID_126_);}
	.st55{clip-path:url(#SVGID_130_);}
	.st56{clip-path:url(#SVGID_134_);}
	.st57{clip-path:url(#SVGID_138_);}
	.st58{clip-path:url(#SVGID_142_);}
	.st59{clip-path:url(#SVGID_146_);}
	.st60{clip-path:url(#SVGID_150_);}
	.st61{clip-path:url(#SVGID_154_);}
	.st62{clip-path:url(#SVGID_158_);}
	.st63{clip-path:url(#SVGID_162_);}
	.st64{clip-path:url(#SVGID_166_);}
	.st65{clip-path:url(#SVGID_170_);}
	.st66{clip-path:url(#SVGID_174_);}
	.st67{clip-path:url(#SVGID_178_);}
	.st68{clip-path:url(#SVGID_182_);fill:none;stroke:#B49256;}
	.st69{clip-path:url(#SVGID_184_);fill:none;stroke:#B49256;}
</style>
<rect x="-989.3" y="-6446.4" class="st4" width="1600" height="8550"/>
<rect x="-436.8" y="-6446.4" class="st4" width="1600" height="8550"/>
<rect x="-964.8" y="-6446.4" class="st4" width="1600" height="8550"/>
<rect x="-412.3" y="-6446.4" class="st4" width="1600" height="8550"/>
<path class="st1" d="M16.9,4.9L16.9,4.9c0-0.3,0-0.7,0-1c0-0.4-0.3-0.7-0.7-0.7c-0.7,0-1.4,0-2.1,0c-0.4,0-0.7,0.3-0.7,0.7
	c0,0.7,0,1.4,0,2.1c0,0.3,0.3,0.6,0.6,0.6c0.7,0,1.4,0,2.2,0c0.4,0,0.7-0.4,0.7-0.7C16.9,5.5,16.9,5.2,16.9,4.9 M13.4,10
	c0-1.9-1.5-3.4-3.4-3.4c-1.9,0-3.4,1.5-3.4,3.4c0,1.9,1.5,3.4,3.4,3.5C11.9,13.4,13.4,11.9,13.4,10 M15.3,8.6
	c0.4,1.7,0.1,3.3-0.9,4.7c-1.1,1.4-2.5,2.1-4.2,2.2c-1.6,0-2.9-0.5-4-1.6c-1.4-1.5-1.9-3.2-1.4-5.2H3.1v0.2c0,2.4,0,4.8,0,7.2
	c0,0.1,0,0.1,0,0.2c0,0.3,0.2,0.5,0.4,0.6c0.1,0.1,0.3,0.1,0.4,0.1c4,0,8,0,12,0c0.1,0,0.1,0,0.2,0c0.1,0,0.2,0,0.3-0.1
	c0.3-0.1,0.4-0.4,0.4-0.7c0-2.4,0-4.8,0-7.3V8.6H15.3z M1.1,17V3c0,0,0-0.1,0-0.1c0.1-0.7,0.5-1.3,1.1-1.6c0.2-0.1,0.4-0.1,0.7-0.2
	h14.2c0,0,0.1,0,0.1,0c0.6,0.1,1.1,0.4,1.4,1c0.1,0.2,0.2,0.5,0.3,0.8v14.2c0,0.1-0.1,0.2-0.1,0.3c-0.3,0.9-1,1.5-1.9,1.5
	c-4.6,0-9.1,0-13.7,0c-0.8,0-1.3-0.4-1.7-1C1.2,17.6,1.2,17.3,1.1,17"/>
</svg>
