<?xml version="1.0" encoding="utf-8"?>
<!-- Generator: Adobe Illustrator 22.1.0, SVG Export Plug-In . SVG Version: 6.00 Build 0)  -->
<svg version="1.1" id="Layer_1" xmlns="http://www.w3.org/2000/svg" xmlns:xlink="http://www.w3.org/1999/xlink" x="0px" y="0px"
	 viewBox="0 0 222 91.5" style="enable-background:new 0 0 222 91.5;" xml:space="preserve">
<style type="text/css">
	.st0{fill:#FFFFFF;}
</style>
<g>
	<path class="st0" d="M31.9,57.8c0,1.3,0.4,2.4,0.9,3.1s1.8,1.6,4,2.2v1.3H16.5v-1.3c2.2-0.7,3.5-1.5,4-2.2c0.5-0.7,0.9-1.8,0.9-3.1
		V22.2c0-1.3-0.2-2-0.7-2.4s-1.3-0.5-2.4-0.5h-4.9L7.5,31H6.2V16h40.7v15.2h-1.3l-5.9-11.7h-4.6c-1.1,0-2,0.2-2.4,0.5
		c-0.4,0.4-0.7,1.1-0.7,2.4v35.4H31.9z"/>
	<path class="st0" d="M48.4,40.4c0-3.5,0.5-6.8,1.6-9.9c1.1-3.1,2.6-5.7,4.4-8.1s4-4,6.6-5.5c2.6-1.3,5.3-2,8.2-2s5.7,0.7,8.2,2
		c2.6,1.3,4.8,3.1,6.6,5.5c1.8,2.4,3.3,4.9,4.4,8.1s1.6,6.4,1.6,9.9s-0.5,6.8-1.6,9.9c-1.1,3.1-2.6,5.7-4.4,7.9
		c-1.8,2.2-4,4-6.6,5.3c-2.6,1.3-5.3,2-8.2,2s-5.7-0.7-8.2-2c-2.6-1.3-4.8-3.1-6.6-5.3c-1.8-2.2-3.3-4.9-4.4-7.9
		C49,47.2,48.4,43.9,48.4,40.4 M60,40.4c0,3.1,0.2,6,0.5,8.8c0.4,2.7,0.9,4.9,1.8,7c0.7,2,1.6,3.7,2.9,4.8c1.1,1.1,2.4,1.6,3.8,1.6
		c1.5,0,2.7-0.5,4-1.6c1.1-1.1,2.2-2.7,2.9-4.8s1.3-4.4,1.8-7c0.4-2.7,0.5-5.7,0.5-8.8s-0.2-6-0.5-8.8c-0.4-2.7-0.9-5.1-1.8-7.1
		c-0.7-2-1.8-3.7-2.9-4.8c-1.1-1.3-2.6-1.8-4-1.8c-1.5,0-2.7,0.5-3.8,1.8c-1.1,1.3-2,2.7-2.9,4.8c-0.7,2-1.3,4.4-1.8,7.1
		C60.1,34.3,60,37.3,60,40.4"/>
	<path class="st0" d="M93.7,37.1c0-2.7,0.5-5.5,1.5-8.2s2.4-4.9,4.2-7c1.8-2,4-3.7,6.4-4.9c2.6-1.3,5.3-1.8,8.2-1.8
		c1.3,0,2.6,0.2,3.7,0.4c1.1,0.2,2.4,0.5,3.5,1.1c1.1-3.5,2.9-5.9,5.3-7.3c2.6-1.5,5.3-2.4,8.4-2.9v9.9c-1.5-0.7-3.1-0.9-4.6-0.9
		c-1.3,0-2.4,0.2-3.7,0.5c-1.1,0.4-2.2,1.1-2.9,2c3.3,2,5.9,4.8,7.9,8.2c1.8,3.5,2.9,7.1,2.9,11c0,2.9-0.5,5.7-1.5,8.2
		s-2.4,4.9-4.2,7s-4,3.7-6.4,4.9c-2.6,1.3-5.3,1.8-8.2,1.8c-2.9,0-5.5-0.5-7.9-1.6c-0.4,0.4-0.7,0.9-0.7,1.8c0,1.3,0.7,2.4,2.2,3.1
		c1.5,0.7,3.3,1.3,5.3,1.6c2.2,0.4,4.6,0.9,7,1.3c2.6,0.4,4.8,0.9,7,1.6c2.2,0.7,4,1.6,5.3,2.7c1.3,1.1,2.2,2.9,2.2,4.9
		c0,2-0.7,3.8-2,5.1c-1.3,1.3-2.9,2.4-4.9,3.3c-2,0.9-4.2,1.5-6.6,1.8c-2.4,0.4-4.6,0.5-6.8,0.5c-2.7,0-5.3-0.2-7.9-0.7
		c-2.6-0.5-4.8-1.1-6.8-2c-2-0.9-3.5-2-4.8-3.5c-1.3-1.5-1.8-3.1-1.8-4.9c0-1.1,0.2-2,0.7-2.9c0.4-0.9,1.3-1.6,2.6-2.6l10.6,1.6
		c-0.7,1.6-1.1,3.1-1.1,4.6s0.4,2.7,1.1,3.8c0.7,1.1,1.6,2,2.9,2.7s2.9,1.1,4.6,1.1c2.2,0,3.8-0.5,5.3-1.6c1.3-1.1,2-2.7,2-5.1
		c0-2-0.7-3.7-2-4.8c-1.3-1.1-2.9-2-4.8-2.6c-1.8-0.5-4-1.1-6.2-1.5c-2.2-0.4-4.4-0.7-6.2-1.3c-1.8-0.5-3.5-1.1-4.8-2
		c-1.3-0.9-2-2.2-2-3.8c0-1.3,0.5-2.4,1.5-3.1c0.9-0.7,2.6-1.5,4.4-1.8c-2.6-2-4.6-4.6-6-7.7C94.4,43.7,93.7,40.4,93.7,37.1
		 M105.4,37.1c0,2.4,0.2,4.8,0.7,7.1c0.4,2.2,1.1,4.2,1.8,6c0.7,1.8,1.6,3.1,2.7,4.2c1.1,1.1,2.2,1.6,3.5,1.6c1.3,0,2.4-0.5,3.5-1.6
		c1.1-1.1,2-2.6,2.7-4.2c0.7-1.8,1.5-3.8,1.8-6c0.4-2.2,0.7-4.6,0.7-7.1c0-2.4-0.2-4.8-0.7-7.1c-0.4-2.4-1.1-4.4-1.8-6.2
		c-0.7-1.8-1.6-3.3-2.7-4.4s-2.2-1.6-3.5-1.6c-1.3,0-2.6,0.5-3.5,1.6c-1.1,1.1-2,2.6-2.7,4.4c-0.7,1.8-1.5,3.8-1.8,6.2
		C105.6,32.3,105.4,34.7,105.4,37.1"/>
	<path class="st0" d="M186.4,49.4h1.3c1.6,4.4,3.5,7.5,5.1,9.5c1.8,2,3.8,2.9,6.6,2.9c2.2,0,4-0.5,5.1-1.8c1.1-1.3,1.6-2.7,1.6-4.4
		c0-1.6-0.5-3.3-1.5-4.6c-0.9-1.5-2.2-2.7-3.7-4c-1.5-1.3-3.1-2.6-4.8-4c-1.6-1.3-3.3-2.7-4.8-4.2c-1.5-1.5-2.7-3.1-3.7-4.9
		c-0.9-1.8-1.5-3.8-1.5-6.2c0-1.5,0.2-3.1,0.7-4.6s1.3-2.7,2.4-4c1.1-1.1,2.6-2,4.2-2.7c1.8-0.7,3.8-1.1,6.2-1.1
		c1.8,0,3.7,0.2,5.5,0.7c1.8,0.4,3.5,1.1,4.9,2l2.9-1.6h1.3v15.6h-1.3c-1.3-3.8-2.7-7.1-4.8-9.5c-2-2.6-4.4-3.8-7-3.8
		c-1.1,0-2.2,0.2-2.9,0.7c-0.7,0.5-1.3,1.1-1.6,1.8c-0.4,0.7-0.7,1.5-0.9,2.2c-0.2,0.7-0.2,1.3-0.2,1.8c0,1.6,0.5,3.1,1.5,4.4
		s2.2,2.6,3.7,3.8c1.5,1.3,3.1,2.6,4.8,3.8c1.6,1.3,3.3,2.7,4.8,4.2c1.5,1.5,2.7,3.1,3.7,4.8c0.9,1.8,1.5,3.7,1.5,6
		c0,1.5-0.2,3.1-0.7,4.6c-0.5,1.6-1.5,3.1-2.6,4.4c-1.3,1.3-2.7,2.6-4.6,3.3c-1.8,0.9-4.2,1.3-7,1.3c-0.9,0-1.8,0-3.1-0.2
		c-1.3-0.2-2.4-0.4-3.7-0.5c-1.3-0.4-2.6-0.7-4-1.1c-1.3-0.5-2.6-1.1-3.8-1.8c-0.7,0.7-1.5,1.3-2.2,2c-0.7,0.5-1.6,0.9-2.7,1.3
		c-1.1,0.4-2.4,0.5-3.7,0.5c-1.6,0-3.3-0.4-4.9-1.1c-1.6-0.7-2.9-1.8-4-3.3c-0.9,0.9-2,1.8-3.7,2.7c-1.6,1.1-4,1.5-7,1.5
		c-2.9,0-5.5-0.5-8.1-1.8c-2.6-1.1-4.6-2.9-6.6-5.1c-1.8-2.2-3.3-4.8-4.4-7.9s-1.6-6.4-1.6-10.3c0-3.5,0.5-7,1.5-10.1
		c0.9-3.1,2.4-5.9,4-8.1c1.6-2.4,3.8-4,6.2-5.5c2.4-1.3,4.9-2,7.9-2c1.5,0,2.9,0.2,4.2,0.5c1.3,0.4,2.4,0.7,3.3,1.3
		c0.9,0.5,1.6,1.1,2.4,1.6c0.7,0.5,1.1,1.1,1.5,1.6l7.3-4h1.5v39.6c0,1.8,0.4,3.1,1.3,3.8c0.9,0.7,1.8,1.3,3.3,1.3
		c1.3,0,2.6-0.4,3.3-1.3c0.9-0.9,1.3-2.4,1.3-4.2v-5.9H186.4z M166.6,23.2c-0.9-1.1-1.8-2.2-3.1-2.9c-1.3-0.9-2.6-1.3-3.8-1.3
		c-1.5,0-2.9,0.5-4.2,1.6c-1.3,1.1-2.4,2.6-3.3,4.6s-1.6,4.2-2.2,7c-0.5,2.7-0.7,5.7-0.7,8.8c0,3.5,0.4,6.4,0.9,9.2
		c0.5,2.7,1.3,4.9,2.2,6.8s2,3.3,3.1,4.4c1.1,0.9,2.4,1.5,3.7,1.5c1.6,0,3.1-0.7,4.4-2c1.3-1.3,2.4-3.1,3.3-5.1
		c0-0.4-0.2-0.7-0.2-1.5V23.2z"/>
</g>
</svg>
