<?xml version="1.0" encoding="utf-8"?>
<!-- Generator: Adobe Illustrator 22.0.1, SVG Export Plug-In . SVG Version: 6.00 Build 0)  -->
<svg version="1.1" id="Layer_1" xmlns="http://www.w3.org/2000/svg" xmlns:xlink="http://www.w3.org/1999/xlink" x="0px" y="0px"
	 viewBox="0 0 662 49.1" style="enable-background:new 0 0 662 49.1;" xml:space="preserve">
<style type="text/css">
	.st0{fill:#232323;}
	.st1{fill:#B49256;}
	.st2{fill:#FFFFFF;}
	.st3{clip-path:url(#SVGID_2_);fill:#B49256;}
	.st4{fill:none;stroke:#B49256;}
	.st5{fill:none;stroke:#B49256;stroke-width:3;}
	.st6{clip-path:url(#SVGID_4_);fill:none;stroke:#B49256;}
	.st7{clip-path:url(#SVGID_6_);}
	.st8{clip-path:url(#SVGID_10_);}
	.st9{fill:#F7F7F7;}
	.st10{clip-path:url(#SVGID_14_);}
	.st11{clip-path:url(#SVGID_18_);fill:none;stroke:#232323;stroke-width:0.5;}
	.st12{clip-path:url(#SVGID_20_);fill:none;stroke:#B49256;}
	.st13{clip-path:url(#SVGID_22_);fill:none;stroke:#B49256;}
	.st14{clip-path:url(#SVGID_24_);fill:none;stroke:#B49256;}
	.st15{clip-path:url(#SVGID_26_);}
	.st16{clip-path:url(#SVGID_30_);}
	.st17{clip-path:url(#SVGID_34_);}
	.st18{clip-path:url(#SVGID_38_);fill:none;stroke:#B49256;}
	.st19{clip-path:url(#SVGID_40_);fill:none;stroke:#B49256;}
	.st20{clip-path:url(#SVGID_42_);}
	.st21{clip-path:url(#SVGID_46_);}
	.st22{clip-path:url(#SVGID_50_);}
	.st23{clip-path:url(#SVGID_54_);}
	.st24{clip-path:url(#SVGID_58_);}
	.st25{filter:url(#Adobe_OpacityMaskFilter);}
	.st26{clip-path:url(#SVGID_62_);fill:url(#SVGID_64_);}
	.st27{clip-path:url(#SVGID_62_);mask:url(#SVGID_63_);}
	.st28{clip-path:url(#SVGID_66_);fill:#232323;}
	.st29{fill:none;stroke:#FFFFFF;}
	.st30{fill:none;}
	.st31{filter:url(#Adobe_OpacityMaskFilter_1_);}
	.st32{mask:url(#SVGID_67_);}
	.st33{opacity:0.55;clip-path:url(#SVGID_71_);}
	.st34{clip-path:url(#SVGID_73_);fill:none;stroke:#B49256;}
	.st35{clip-path:url(#SVGID_75_);fill:none;stroke:#B49256;}
	.st36{clip-path:url(#SVGID_77_);fill:#B49256;}
	.st37{clip-path:url(#SVGID_79_);fill:#B49256;}
	.st38{clip-path:url(#SVGID_81_);fill:#B49256;}
	.st39{clip-path:url(#SVGID_83_);fill:#B49256;}
	.st40{clip-path:url(#SVGID_85_);fill:#B49256;}
	.st41{clip-path:url(#SVGID_87_);fill:#B49256;}
	.st42{clip-path:url(#SVGID_89_);fill:#B49256;}
	.st43{clip-path:url(#SVGID_91_);fill:#B49256;}
	.st44{clip-path:url(#SVGID_93_);}
	.st45{clip-path:url(#SVGID_97_);}
	.st46{clip-path:url(#SVGID_101_);}
	.st47{clip-path:url(#SVGID_105_);fill:#B49256;}
	.st48{clip-path:url(#SVGID_107_);fill:#B49256;}
	.st49{clip-path:url(#SVGID_109_);fill:#B49256;}
	.st50{clip-path:url(#SVGID_111_);fill:none;stroke:#B49256;}
	.st51{clip-path:url(#SVGID_113_);fill:none;stroke:#B49256;}
	.st52{clip-path:url(#SVGID_115_);}
	.st53{clip-path:url(#SVGID_119_);}
	.st54{clip-path:url(#SVGID_123_);}
	.st55{clip-path:url(#SVGID_127_);}
	.st56{clip-path:url(#SVGID_131_);}
	.st57{clip-path:url(#SVGID_135_);}
	.st58{clip-path:url(#SVGID_139_);}
	.st59{clip-path:url(#SVGID_143_);}
	.st60{clip-path:url(#SVGID_147_);}
	.st61{clip-path:url(#SVGID_151_);}
	.st62{clip-path:url(#SVGID_155_);}
	.st63{clip-path:url(#SVGID_159_);}
	.st64{clip-path:url(#SVGID_163_);}
	.st65{clip-path:url(#SVGID_167_);}
	.st66{clip-path:url(#SVGID_171_);}
	.st67{clip-path:url(#SVGID_175_);fill:none;stroke:#B49256;}
	.st68{clip-path:url(#SVGID_177_);fill:none;stroke:#B49256;}
</style>
<g>
	<path class="st2" d="M294.1,31.2c0,0.7,0.2,1.3,0.5,1.7c0.3,0.4,1,0.9,2.2,1.2v0.7h-11.1v-0.7c1.2-0.4,1.9-0.8,2.2-1.2
		c0.3-0.4,0.5-1,0.5-1.7V11.8c0-0.7-0.1-1.1-0.4-1.3c-0.3-0.2-0.7-0.3-1.3-0.3H284l-3.2,6.4h-0.7V8.4h22.2v8.3h-0.7l-3.2-6.4h-2.5
		c-0.6,0-1.1,0.1-1.3,0.3c-0.2,0.2-0.4,0.6-0.4,1.3V31.2z"/>
	<path class="st2" d="M303.1,21.7c0-1.9,0.3-3.7,0.9-5.4c0.6-1.7,1.4-3.1,2.4-4.4c1-1.3,2.2-2.2,3.6-3c1.4-0.7,2.9-1.1,4.5-1.1
		c1.6,0,3.1,0.4,4.5,1.1c1.4,0.7,2.6,1.7,3.6,3c1,1.3,1.8,2.7,2.4,4.4c0.6,1.7,0.9,3.5,0.9,5.4c0,1.9-0.3,3.7-0.9,5.4
		c-0.6,1.7-1.4,3.1-2.4,4.3c-1,1.2-2.2,2.2-3.6,2.9c-1.4,0.7-2.9,1.1-4.5,1.1c-1.6,0-3.1-0.4-4.5-1.1c-1.4-0.7-2.6-1.7-3.6-2.9
		c-1-1.2-1.8-2.7-2.4-4.3C303.4,25.4,303.1,23.6,303.1,21.7 M309.4,21.7c0,1.7,0.1,3.3,0.3,4.8c0.2,1.5,0.5,2.7,1,3.8
		c0.4,1.1,0.9,2,1.6,2.6c0.6,0.6,1.3,0.9,2.1,0.9c0.8,0,1.5-0.3,2.2-0.9c0.6-0.6,1.2-1.5,1.6-2.6c0.4-1.1,0.7-2.4,1-3.8
		c0.2-1.5,0.3-3.1,0.3-4.8c0-1.7-0.1-3.3-0.3-4.8c-0.2-1.5-0.5-2.8-1-3.9c-0.4-1.1-1-2-1.6-2.6c-0.6-0.7-1.4-1-2.2-1
		c-0.8,0-1.5,0.3-2.1,1c-0.6,0.7-1.1,1.5-1.6,2.6c-0.4,1.1-0.7,2.4-1,3.9C309.5,18.4,309.4,20,309.4,21.7"/>
	<path class="st2" d="M327.8,19.9c0-1.5,0.3-3,0.8-4.5c0.5-1.5,1.3-2.7,2.3-3.8c1-1.1,2.2-2,3.5-2.7c1.4-0.7,2.9-1,4.5-1
		c0.7,0,1.4,0.1,2,0.2c0.6,0.1,1.3,0.3,1.9,0.6c0.6-1.9,1.6-3.2,2.9-4c1.4-0.8,2.9-1.3,4.6-1.6v5.4c-0.8-0.4-1.7-0.5-2.5-0.5
		c-0.7,0-1.3,0.1-2,0.3c-0.6,0.2-1.2,0.6-1.6,1.1c1.8,1.1,3.2,2.6,4.3,4.5c1,1.9,1.6,3.9,1.6,6c0,1.6-0.3,3.1-0.8,4.5
		c-0.5,1.4-1.3,2.7-2.3,3.8c-1,1.1-2.2,2-3.5,2.7c-1.4,0.7-2.9,1-4.5,1c-1.6,0-3-0.3-4.3-0.9c-0.2,0.2-0.4,0.5-0.4,1
		c0,0.7,0.4,1.3,1.2,1.7c0.8,0.4,1.8,0.7,2.9,0.9c1.2,0.2,2.5,0.5,3.8,0.7c1.4,0.2,2.6,0.5,3.8,0.9c1.2,0.4,2.2,0.9,2.9,1.5
		s1.2,1.6,1.2,2.7c0,1.1-0.4,2.1-1.1,2.8c-0.7,0.7-1.6,1.3-2.7,1.8c-1.1,0.5-2.3,0.8-3.6,1c-1.3,0.2-2.5,0.3-3.7,0.3
		c-1.5,0-2.9-0.1-4.3-0.4c-1.4-0.3-2.6-0.6-3.7-1.1c-1.1-0.5-1.9-1.1-2.6-1.9c-0.7-0.8-1-1.7-1-2.7c0-0.6,0.1-1.1,0.4-1.6
		c0.2-0.5,0.7-0.9,1.4-1.4l5.8,0.9c-0.4,0.9-0.6,1.7-0.6,2.5c0,0.8,0.2,1.5,0.6,2.1c0.4,0.6,0.9,1.1,1.6,1.5
		c0.7,0.4,1.6,0.6,2.5,0.6c1.2,0,2.1-0.3,2.9-0.9c0.7-0.6,1.1-1.5,1.1-2.8c0-1.1-0.4-2-1.1-2.6c-0.7-0.6-1.6-1.1-2.6-1.4
		c-1-0.3-2.2-0.6-3.4-0.8c-1.2-0.2-2.4-0.4-3.4-0.7c-1-0.3-1.9-0.6-2.6-1.1c-0.7-0.5-1.1-1.2-1.1-2.1c0-0.7,0.3-1.3,0.8-1.7
		c0.5-0.4,1.4-0.8,2.4-1c-1.4-1.1-2.5-2.5-3.3-4.2C328.2,23.5,327.8,21.7,327.8,19.9 M334.2,19.9c0,1.3,0.1,2.6,0.4,3.9
		c0.2,1.2,0.6,2.3,1,3.3c0.4,1,0.9,1.7,1.5,2.3c0.6,0.6,1.2,0.9,1.9,0.9c0.7,0,1.3-0.3,1.9-0.9c0.6-0.6,1.1-1.4,1.5-2.3
		c0.4-1,0.8-2.1,1-3.3c0.2-1.2,0.4-2.5,0.4-3.9c0-1.3-0.1-2.6-0.4-3.9c-0.2-1.3-0.6-2.4-1-3.4c-0.4-1-0.9-1.8-1.5-2.4
		c-0.6-0.6-1.2-0.9-1.9-0.9c-0.7,0-1.4,0.3-1.9,0.9c-0.6,0.6-1.1,1.4-1.5,2.4c-0.4,1-0.8,2.1-1,3.4
		C334.3,17.3,334.2,18.6,334.2,19.9"/>
	<path class="st2" d="M378.4,26.6h0.7c0.9,2.4,1.9,4.1,2.8,5.2c1,1.1,2.1,1.6,3.6,1.6c1.2,0,2.2-0.3,2.8-1c0.6-0.7,0.9-1.5,0.9-2.4
		c0-0.9-0.3-1.8-0.8-2.5c-0.5-0.8-1.2-1.5-2-2.2c-0.8-0.7-1.7-1.4-2.6-2.2c-0.9-0.7-1.8-1.5-2.6-2.3c-0.8-0.8-1.5-1.7-2-2.7
		c-0.5-1-0.8-2.1-0.8-3.4c0-0.8,0.1-1.7,0.4-2.5c0.3-0.8,0.7-1.5,1.3-2.2c0.6-0.6,1.4-1.1,2.3-1.5c1-0.4,2.1-0.6,3.4-0.6
		c1,0,2,0.1,3,0.4c1,0.2,1.9,0.6,2.7,1.1l1.6-0.9h0.7v8.5h-0.7c-0.7-2.1-1.5-3.9-2.6-5.2c-1.1-1.4-2.4-2.1-3.8-2.1
		c-0.6,0-1.2,0.1-1.6,0.4c-0.4,0.3-0.7,0.6-0.9,1c-0.2,0.4-0.4,0.8-0.5,1.2c-0.1,0.4-0.1,0.7-0.1,1c0,0.9,0.3,1.7,0.8,2.4
		c0.5,0.7,1.2,1.4,2,2.1c0.8,0.7,1.7,1.4,2.6,2.1c0.9,0.7,1.8,1.5,2.6,2.3c0.8,0.8,1.5,1.7,2,2.6c0.5,1,0.8,2,0.8,3.3
		c0,0.8-0.1,1.7-0.4,2.5c-0.3,0.9-0.8,1.7-1.4,2.4c-0.7,0.7-1.5,1.4-2.5,1.8c-1,0.5-2.3,0.7-3.8,0.7c-0.5,0-1,0-1.7-0.1
		c-0.7-0.1-1.3-0.2-2-0.3c-0.7-0.2-1.4-0.4-2.2-0.6c-0.7-0.3-1.4-0.6-2.1-1c-0.4,0.4-0.8,0.7-1.2,1.1c-0.4,0.3-0.9,0.5-1.5,0.7
		c-0.6,0.2-1.3,0.3-2,0.3c-0.9,0-1.8-0.2-2.7-0.6c-0.9-0.4-1.6-1-2.2-1.8c-0.5,0.5-1.1,1-2,1.5c-0.9,0.6-2.2,0.8-3.8,0.8
		c-1.6,0-3-0.3-4.4-1c-1.4-0.6-2.5-1.6-3.6-2.8c-1-1.2-1.8-2.6-2.4-4.3c-0.6-1.7-0.9-3.5-0.9-5.6c0-1.9,0.3-3.8,0.8-5.5
		c0.5-1.7,1.3-3.2,2.2-4.4c0.9-1.3,2.1-2.2,3.4-3c1.3-0.7,2.7-1.1,4.3-1.1c0.8,0,1.6,0.1,2.3,0.3c0.7,0.2,1.3,0.4,1.8,0.7
		c0.5,0.3,0.9,0.6,1.3,0.9c0.4,0.3,0.6,0.6,0.8,0.9l4-2.2h0.8v21.6c0,1,0.2,1.7,0.7,2.1c0.5,0.4,1,0.7,1.8,0.7
		c0.7,0,1.4-0.2,1.8-0.7c0.5-0.5,0.7-1.3,0.7-2.3V26.6z M367.6,12.3c-0.5-0.6-1-1.2-1.7-1.6c-0.7-0.5-1.4-0.7-2.1-0.7
		c-0.8,0-1.6,0.3-2.3,0.9c-0.7,0.6-1.3,1.4-1.8,2.5c-0.5,1.1-0.9,2.3-1.2,3.8c-0.3,1.5-0.4,3.1-0.4,4.8c0,1.9,0.2,3.5,0.5,5
		c0.3,1.5,0.7,2.7,1.2,3.7c0.5,1,1.1,1.8,1.7,2.4c0.6,0.5,1.3,0.8,2,0.8c0.9,0,1.7-0.4,2.4-1.1c0.7-0.7,1.3-1.7,1.8-2.8
		c0-0.2-0.1-0.4-0.1-0.8V12.3z"/>
</g>
<g>
	<path class="st2" d="M3.2,18.2c0.6,0.1,1.1,0.1,2.8,0.1c1.6,0,2.2,0,2.8-0.1c0,0,0.1,0,0.1,0.1l-0.2,2.1H8.7c-0.1,0-0.2,0-0.2-0.2
		c-0.3-1.3-0.3-1.5-1.4-1.5H6.4l-1.1,6c0,0,0,0.2,0,0.2c0,0.6,0.9,0.3,0.8,0.7l0,0.1H3.4l0-0.1c0.1-0.4,0.8-0.1,1-0.9l1.1-6H4.9
		c-1.1,0-1.2,0.2-2,1.5c-0.1,0.1-0.1,0.2-0.2,0.2c0,0,0,0-0.1,0c0.2-0.7,0.4-1.4,0.6-2.1C3.2,18.2,3.2,18.2,3.2,18.2z"/>
	<path class="st2" d="M19.2,24.7c-0.1,0.8,0.9,0.4,0.8,0.8l0,0.1h-2.7l0-0.1c0.1-0.4,0.9-0.1,1-0.9l0.5-2.7h-3.5l-0.5,2.7
		c-0.1,0.8,0.9,0.4,0.8,0.8l0,0.1h-2.7l0-0.1c0.1-0.4,0.9-0.1,1-0.9l1-5.4c0.1-0.8-0.8-0.4-0.7-0.9l0-0.1h2.7l0,0.1
		c-0.1,0.4-1,0.1-1.1,0.8l-0.4,2.3h3.5l0.4-2.3c0.1-0.8-0.8-0.4-0.7-0.9l0-0.1h2.7l0,0.1c-0.1,0.4-1,0.1-1.1,0.8L19.2,24.7z"/>
	<path class="st2" d="M28.7,25.3c1.1,0,1.7-0.6,2.4-2c0.1-0.1,0.2-0.3,0.3-0.2l0.1,0l-1,2.5c0,0-0.1,0.1-0.1,0.1c-0.5,0-1,0-2.1,0
		h-3.2l0-0.2c0.1-0.4,0.8,0,1-0.9l0.9-5.2c0-0.1,0-0.1,0-0.2c0-0.6-0.7-0.4-0.7-0.7c0,0,0-0.1,0-0.2h2.3c1.4,0,2.2-0.1,2.9-0.1
		l0,0.1l-0.1,1.9c0,0-0.1,0-0.1,0c-0.1,0-0.2,0-0.2-0.2c-0.3-1.3-0.4-1.4-1.5-1.4h-1.6l-0.5,3h1.1c1.1,0,0.9-1.2,1.3-1.2h0.1
		l-0.5,2.9h-0.1c-0.4,0,0.1-1.3-0.9-1.3h-1.1l-0.5,2.6c0,0.1,0,0.1,0,0.2c0,0.3,0.2,0.5,0.7,0.5H28.7z"/>
	<path class="st2" d="M49.2,24.7c-0.1,0.8,0.9,0.4,0.8,0.8l0,0.1h-2.7l0-0.1c0.1-0.4,0.9-0.1,1-0.9l0.5-2.7h-3.5l-0.5,2.7
		c-0.1,0.8,0.9,0.4,0.8,0.8l0,0.1h-2.7l0-0.1c0.1-0.4,0.9-0.1,1-0.9l1-5.4c0.1-0.8-0.8-0.4-0.7-0.9l0-0.1h2.7l0,0.1
		c-0.1,0.4-1,0.1-1.1,0.8l-0.4,2.3h3.5l0.4-2.3c0.1-0.8-0.8-0.4-0.7-0.9l0-0.1h2.7l0,0.1c-0.1,0.4-1,0.1-1.1,0.8L49.2,24.7z"/>
	<path class="st2" d="M62.6,21.1c0,2.4-1.8,4.6-4.1,4.6c-1.8,0-2.7-1.2-2.7-2.9c0-2.5,1.8-4.7,4.1-4.7
		C61.7,18.2,62.6,19.5,62.6,21.1z M56.8,23.1c0,1.3,0.5,2.3,1.8,2.3c2.1,0,3-2.7,3-4.5c0-1.3-0.4-2.3-1.8-2.3
		C57.7,18.6,56.8,21.4,56.8,23.1z"/>
	<path class="st2" d="M74,22.6c-0.4,2.1-1.5,3.1-3.1,3.1c-1.6,0-2.6-0.7-2.3-2.8l0.7-3.7c0.1-0.8-0.8-0.4-0.7-0.9l0-0.1h2.7l0,0.1
		c-0.1,0.4-0.9,0.1-1.1,0.9l-0.6,3.5c-0.3,1.5,0,2.5,1.6,2.5c1.2,0,2.2-0.9,2.5-2.8l0.6-3.3c0.1-0.8-0.9-0.5-0.8-0.9l0-0.1h2.3
		l0,0.1c-0.1,0.4-1,0.1-1.1,0.9L74,22.6z"/>
	<path class="st2" d="M79.6,24.6c0-0.5,0.3-0.7,0.6-0.7c0.3,0,0.6,0.3,0.6,0.6c0,0.2-0.1,0.4-0.2,0.6c0.3,0.2,0.7,0.3,1.2,0.3
		c1,0,2.1-0.5,2.1-1.7c0-1.7-3.2-1.7-3.2-3.5c0-1.5,1.3-2.1,2.5-2.1c1,0,1.9,0.5,1.9,1.2c0,0.3-0.2,0.6-0.5,0.6
		c-0.4,0-0.6-0.3-0.6-0.7c0-0.2,0.1-0.4,0.2-0.6c-0.3-0.1-0.6-0.2-1-0.2c-0.7,0-1.6,0.3-1.6,1.3c0,1.4,3.2,1.5,3.2,3.5
		c0,1.7-1.6,2.4-3,2.4C80.5,25.8,79.6,25.3,79.6,24.6z"/>
	<path class="st2" d="M93.1,25.3c1.1,0,1.7-0.6,2.4-2c0.1-0.1,0.2-0.3,0.3-0.2l0.1,0l-1,2.5c0,0-0.1,0.1-0.1,0.1c-0.5,0-1,0-2.1,0
		h-3.2l0-0.2c0.1-0.4,0.8,0,1-0.9l0.9-5.2c0-0.1,0-0.1,0-0.2c0-0.6-0.7-0.4-0.7-0.7c0,0,0-0.1,0-0.2h2.3c1.4,0,2.2-0.1,2.9-0.1
		l0,0.1l-0.1,1.9c0,0-0.1,0-0.1,0c-0.1,0-0.2,0-0.2-0.2c-0.3-1.3-0.4-1.4-1.5-1.4h-1.6l-0.5,3h1.1c1.1,0,0.9-1.2,1.3-1.2h0.1
		L94,23.3h-0.1c-0.4,0,0.1-1.3-0.9-1.3h-1.1l-0.5,2.6c0,0.1,0,0.1,0,0.2c0,0.3,0.2,0.5,0.7,0.5H93.1z"/>
	<path class="st2" d="M114.8,21.1c0,2.4-1.8,4.6-4.1,4.6c-1.8,0-2.7-1.2-2.7-2.9c0-2.5,1.8-4.7,4.1-4.7
		C113.8,18.2,114.8,19.5,114.8,21.1z M109,23.1c0,1.3,0.5,2.3,1.8,2.3c2.1,0,3-2.7,3-4.5c0-1.3-0.4-2.3-1.8-2.3
		C109.9,18.6,109,21.4,109,23.1z"/>
	<path class="st2" d="M121.4,19.5c0-0.1,0-0.2,0-0.3c0-0.6-0.7-0.4-0.7-0.7c0,0,0-0.1,0-0.2h2.3c1.4,0,2.3-0.1,3-0.1l0,0.1l-0.1,1.9
		c0,0-0.1,0-0.1,0c-0.1,0-0.2,0-0.2-0.2c-0.3-1.3-0.4-1.4-1.5-1.4h-1.7l-0.5,3.1h1.3c1.1,0,0.9-1.2,1.3-1.2h0.1l-0.5,2.9h-0.1
		c-0.4,0,0.1-1.3-0.9-1.3h-1.3l-0.5,2.6c-0.1,0.8,0.9,0.4,0.8,0.8l0,0.1h-2.7l0-0.1c0.1-0.4,0.9-0.1,1-0.9L121.4,19.5z"/>
	<path class="st2" d="M138,18.2c0.6,0.1,1.1,0.1,2.8,0.1c1.6,0,2.2,0,2.8-0.1c0,0,0.1,0,0.1,0.1l-0.2,2.1h-0.1c-0.1,0-0.2,0-0.2-0.2
		c-0.3-1.3-0.3-1.5-1.4-1.5h-0.6l-1.1,6c0,0,0,0.2,0,0.2c0,0.6,0.9,0.3,0.8,0.7l0,0.1h-2.7l0-0.1c0.1-0.4,0.8-0.1,1-0.9l1.1-6h-0.6
		c-1.1,0-1.2,0.2-2,1.5c-0.1,0.1-0.1,0.2-0.2,0.2c0,0,0,0-0.1,0c0.2-0.7,0.4-1.4,0.6-2.1C137.9,18.2,138,18.2,138,18.2z"/>
	<path class="st2" d="M151.2,25.3c1.1,0,1.7-0.6,2.4-2c0.1-0.1,0.2-0.3,0.3-0.2l0.1,0l-1,2.5c0,0-0.1,0.1-0.1,0.1c-0.5,0-1,0-2.1,0
		h-3.2l0-0.2c0.1-0.4,0.8,0,1-0.9l0.9-5.2c0-0.1,0-0.1,0-0.2c0-0.6-0.7-0.4-0.7-0.7c0,0,0-0.1,0-0.2h2.3c1.4,0,2.2-0.1,2.9-0.1
		l0,0.1l-0.1,1.9c0,0-0.1,0-0.1,0c-0.1,0-0.2,0-0.2-0.2c-0.3-1.3-0.4-1.4-1.5-1.4h-1.6l-0.5,3h1.1c1.1,0,0.9-1.2,1.3-1.2h0.1
		l-0.5,2.9h-0.1c-0.4,0,0.1-1.3-0.9-1.3h-1.1l-0.5,2.6c0,0.1,0,0.1,0,0.2c0,0.3,0.2,0.5,0.7,0.5H151.2z"/>
	<path class="st2" d="M162,22.3l-1.4,1.8c-0.4,0.5-0.5,0.7-0.5,0.9c0,0.4,0.6,0.2,0.6,0.5c0,0,0,0.1,0,0.1h-2.2
		c0-0.5,0.4-0.2,1.1-0.9c0.2-0.2,0.4-0.4,0.7-0.8l1.6-1.9l-1-2.3c-0.5-1.2-1.1-1-1.1-1.3c0,0,0,0,0-0.2h2.5l0,0.1
		c-0.1,0.4-0.6,0.1-0.6,0.6c0,0.1,0,0.4,0.2,0.7l0.7,1.6l1.1-1.4c0.3-0.4,0.5-0.7,0.5-0.9c0-0.4-0.5-0.3-0.5-0.6c0,0,0,0,0-0.2h2.3
		l0,0.1c-0.1,0.5-0.6-0.1-1.9,1.5l-1.4,1.7l1,2.3c0.7,1.6,1.4,1.2,1.4,1.5c0,0.1,0,0.1,0,0.2h-2.8l0-0.1c0.1-0.3,0.7-0.1,0.7-0.7
		c0-0.2,0-0.3-0.1-0.6L162,22.3z"/>
	<path class="st2" d="M171.1,18.2c0.6,0.1,1.1,0.1,2.8,0.1c1.6,0,2.2,0,2.8-0.1c0,0,0.1,0,0.1,0.1l-0.2,2.1h-0.1
		c-0.1,0-0.2,0-0.2-0.2c-0.3-1.3-0.3-1.5-1.4-1.5h-0.6l-1.1,6c0,0,0,0.2,0,0.2c0,0.6,0.9,0.3,0.8,0.7l0,0.1h-2.7l0-0.1
		c0.1-0.4,0.8-0.1,1-0.9l1.1-6h-0.6c-1.1,0-1.2,0.2-2,1.5c-0.1,0.1-0.1,0.2-0.2,0.2c0,0,0,0-0.1,0c0.2-0.7,0.4-1.4,0.6-2.1
		C171,18.2,171.1,18.2,171.1,18.2z"/>
	<path class="st2" d="M182.9,24.7c-0.1,0.8,0.9,0.4,0.8,0.8l0,0.1H181l0-0.1c0.1-0.4,0.9-0.1,1-0.9l1-5.4c0.1-0.8-0.8-0.4-0.7-0.9
		l0-0.1h2.7l0,0.1c-0.1,0.4-1,0.1-1.1,0.8L182.9,24.7z"/>
	<path class="st2" d="M192.7,25.3c1.1,0,1.6-0.6,2.4-2.1c0-0.1,0.1-0.2,0.3-0.2l0.1,0c-0.3,0.9-0.6,1.7-1,2.6l-0.1,0.1
		c-0.6,0-1.4,0-2.7,0h-2.7l0-0.2c0.1-0.4,0.8,0,1-0.9l0.9-5.2c0-0.1,0-0.1,0-0.2c0-0.5-0.8-0.4-0.8-0.7c0,0,0-0.1,0-0.2h2.7l0,0.1
		c-0.1,0.4-0.9,0.1-1.1,0.8l-0.9,5.3c-0.1,0.5,0,0.7,0.7,0.7H192.7z"/>
	<path class="st2" d="M203.6,25.3c1.1,0,1.7-0.6,2.4-2c0.1-0.1,0.2-0.3,0.3-0.2l0.1,0l-1,2.5c0,0-0.1,0.1-0.1,0.1c-0.5,0-1,0-2.1,0
		h-3.2l0-0.2c0.1-0.4,0.8,0,1-0.9l0.9-5.2c0-0.1,0-0.1,0-0.2c0-0.6-0.7-0.4-0.7-0.7c0,0,0-0.1,0-0.2h2.3c1.4,0,2.2-0.1,2.9-0.1
		l0,0.1l-0.1,1.9c0,0-0.1,0-0.1,0c-0.1,0-0.2,0-0.2-0.2c-0.3-1.3-0.4-1.4-1.5-1.4H203l-0.5,3h1.1c1.1,0,0.9-1.2,1.3-1.2h0.1
		l-0.5,2.9h-0.1c-0.4,0,0.1-1.3-0.9-1.3h-1.1l-0.5,2.6c0,0.1,0,0.1,0,0.2c0,0.3,0.2,0.5,0.7,0.5H203.6z"/>
	<path class="st2" d="M211.2,24.6c0-0.5,0.3-0.7,0.6-0.7c0.3,0,0.6,0.3,0.6,0.6c0,0.2-0.1,0.4-0.2,0.6c0.3,0.2,0.7,0.3,1.2,0.3
		c1,0,2.1-0.5,2.1-1.7c0-1.7-3.2-1.7-3.2-3.5c0-1.5,1.3-2.1,2.5-2.1c1,0,1.9,0.5,1.9,1.2c0,0.3-0.2,0.6-0.5,0.6
		c-0.4,0-0.6-0.3-0.6-0.7c0-0.2,0.1-0.4,0.2-0.6c-0.3-0.1-0.6-0.2-1-0.2c-0.7,0-1.6,0.3-1.6,1.3c0,1.4,3.2,1.5,3.2,3.5
		c0,1.7-1.6,2.4-3,2.4C212.1,25.8,211.2,25.3,211.2,24.6z"/>
</g>
<g>
	<path class="st2" d="M475.5,25.3c1.1,0,1.7-0.6,2.4-2c0.1-0.1,0.2-0.3,0.3-0.2l0.1,0l-1,2.5c0,0-0.1,0.1-0.1,0.1c-0.5,0-1,0-2.1,0
		H472l0-0.2c0.1-0.4,0.8,0,1-0.9l0.9-5.2c0-0.1,0-0.1,0-0.2c0-0.6-0.7-0.4-0.7-0.7c0,0,0-0.1,0-0.2h2.3c1.4,0,2.2-0.1,2.9-0.1l0,0.1
		l-0.1,1.9c0,0-0.1,0-0.1,0c-0.1,0-0.2,0-0.2-0.2c-0.3-1.3-0.4-1.4-1.5-1.4h-1.6l-0.5,3h1.1c1.1,0,0.9-1.2,1.3-1.2h0.1l-0.5,2.9
		h-0.1c-0.4,0,0.1-1.3-0.9-1.3h-1.1l-0.5,2.6c0,0.1,0,0.1,0,0.2c0,0.3,0.2,0.5,0.7,0.5H475.5z"/>
	<path class="st2" d="M483.1,24.6c0-0.5,0.3-0.7,0.6-0.7c0.3,0,0.6,0.3,0.6,0.6c0,0.2-0.1,0.4-0.2,0.6c0.3,0.2,0.7,0.3,1.2,0.3
		c1,0,2.1-0.5,2.1-1.7c0-1.7-3.2-1.7-3.2-3.5c0-1.5,1.3-2.1,2.5-2.1c1,0,1.9,0.5,1.9,1.2c0,0.3-0.2,0.6-0.5,0.6
		c-0.4,0-0.6-0.3-0.6-0.7c0-0.2,0.1-0.4,0.2-0.6c-0.3-0.1-0.6-0.2-1-0.2c-0.7,0-1.6,0.3-1.6,1.3c0,1.4,3.2,1.5,3.2,3.5
		c0,1.7-1.6,2.4-3,2.4C484,25.8,483.1,25.3,483.1,24.6z"/>
	<path class="st2" d="M494.4,18.2c0.6,0.1,1.1,0.1,2.8,0.1c1.6,0,2.2,0,2.8-0.1c0,0,0.1,0,0.1,0.1l-0.2,2.1h-0.1
		c-0.1,0-0.2,0-0.2-0.2c-0.3-1.3-0.3-1.5-1.4-1.5h-0.6l-1.1,6c0,0,0,0.2,0,0.2c0,0.6,0.9,0.3,0.8,0.7l0,0.1h-2.7l0-0.1
		c0.1-0.4,0.8-0.1,1-0.9l1.1-6H496c-1.1,0-1.2,0.2-2,1.5c-0.1,0.1-0.1,0.2-0.2,0.2c0,0,0,0-0.1,0c0.2-0.7,0.4-1.4,0.6-2.1
		C494.3,18.2,494.4,18.2,494.4,18.2z"/>
	<path class="st2" d="M504.8,24.9c0,0.5,0.7,0.3,0.7,0.6c0,0,0,0.1,0,0.2h-2.2l0-0.1c0.1-0.4,0.7,0,1.3-1.1c1.1-2.1,2.2-4.1,3.3-6.2
		c0.1,0,0.2,0,0.3,0l1.2,6.2c0.2,1.1,0.8,0.8,0.8,1.1c0,0.1,0,0.1,0,0.1h-2.4l0-0.1c0.1-0.4,0.7-0.1,0.7-0.8c0-0.1,0-0.1,0-0.2
		l-0.2-1.2h-2.8C505.2,23.8,504.8,24.6,504.8,24.9z M507.5,19.4c-0.6,1.2-1.2,2.4-1.9,3.6h2.5l-0.3-1.5
		C507.8,21.1,507.6,20.2,507.5,19.4L507.5,19.4z"/>
	<path class="st2" d="M515.1,25.7l0-0.2c0-0.4,0.8,0,1-0.9l0.8-4.6c0-0.3,0.1-0.6,0.1-0.8c0-0.6-0.7-0.4-0.7-0.7c0,0,0,0,0-0.2h2.9
		c1.5,0,2.2,0.8,2.2,1.5c0,1.2-1.2,1.7-2.1,1.8v0c1.2,0.1,1.8,0.9,1.8,1.8c0,0.9-1,2.3-2.9,2.3H515.1z M517,24.3
		c-0.1,0.6-0.2,1,0.7,1h0.2c1,0,2.3-0.6,2.3-2.1c0-1.2-1.1-1.4-1.7-1.4h-1L517,24.3z M517.5,21.5h0.9c0.5,0,2-0.2,2-1.7
		c0-0.9-0.9-1.1-1.5-1.1H518L517.5,21.5z"/>
	<path class="st2" d="M529.8,25.3c1.1,0,1.6-0.6,2.4-2.1c0-0.1,0.1-0.2,0.3-0.2l0.1,0c-0.3,0.9-0.6,1.7-1,2.6l-0.1,0.1
		c-0.6,0-1.4,0-2.7,0h-2.7l0-0.2c0.1-0.4,0.8,0,1-0.9l0.9-5.2c0-0.1,0-0.1,0-0.2c0-0.5-0.8-0.4-0.8-0.7c0,0,0-0.1,0-0.2h2.7l0,0.1
		c-0.1,0.4-0.9,0.1-1.1,0.8l-0.9,5.3c-0.1,0.5,0,0.7,0.7,0.7H529.8z"/>
	<path class="st2" d="M539.2,24.7c-0.1,0.8,0.9,0.4,0.8,0.8l0,0.1h-2.7l0-0.1c0.1-0.4,0.9-0.1,1-0.9l1-5.4c0.1-0.8-0.8-0.4-0.7-0.9
		l0-0.1h2.7l0,0.1c-0.1,0.4-1,0.1-1.1,0.8L539.2,24.7z"/>
	<path class="st2" d="M545.5,24.6c0-0.5,0.3-0.7,0.6-0.7c0.3,0,0.6,0.3,0.6,0.6c0,0.2-0.1,0.4-0.2,0.6c0.3,0.2,0.7,0.3,1.2,0.3
		c1,0,2.1-0.5,2.1-1.7c0-1.7-3.2-1.7-3.2-3.5c0-1.5,1.3-2.1,2.5-2.1c1,0,1.9,0.5,1.9,1.2c0,0.3-0.2,0.6-0.5,0.6
		c-0.4,0-0.6-0.3-0.6-0.7c0-0.2,0.1-0.4,0.2-0.6c-0.3-0.1-0.6-0.2-1-0.2c-0.7,0-1.6,0.3-1.6,1.3c0,1.4,3.2,1.5,3.2,3.5
		c0,1.7-1.7,2.4-3,2.4C546.4,25.8,545.5,25.3,545.5,24.6z"/>
	<path class="st2" d="M561.8,24.7c-0.1,0.8,0.9,0.4,0.8,0.8l0,0.1h-2.7l0-0.1c0.1-0.4,0.9-0.1,1-0.9l0.5-2.7h-3.5l-0.5,2.7
		c-0.1,0.8,0.9,0.4,0.8,0.8l0,0.1h-2.7l0-0.1c0.1-0.4,0.9-0.1,1-0.9l1-5.4c0.1-0.8-0.8-0.4-0.7-0.9l0-0.1h2.7l0,0.1
		c-0.1,0.4-1,0.1-1.1,0.8l-0.4,2.3h3.5l0.4-2.3c0.1-0.8-0.8-0.4-0.7-0.9l0-0.1h2.7l0,0.1c-0.1,0.4-1,0.1-1.1,0.8L561.8,24.7z"/>
	<path class="st2" d="M571.2,25.3c1.1,0,1.7-0.6,2.4-2c0.1-0.1,0.2-0.3,0.3-0.2l0.1,0l-1,2.5c0,0-0.1,0.1-0.1,0.1c-0.5,0-1,0-2.1,0
		h-3.2l0-0.2c0.1-0.4,0.8,0,1-0.9l0.9-5.2c0-0.1,0-0.1,0-0.2c0-0.6-0.7-0.4-0.7-0.7c0,0,0-0.1,0-0.2h2.3c1.4,0,2.2-0.1,2.9-0.1
		l0,0.1l-0.1,1.9c0,0-0.1,0-0.1,0c-0.1,0-0.2,0-0.2-0.2c-0.3-1.3-0.4-1.4-1.5-1.4h-1.6l-0.5,3h1.1c1.1,0,0.9-1.2,1.3-1.2h0.1
		l-0.5,2.9h-0.1c-0.4,0,0.1-1.3-0.9-1.3h-1.1l-0.5,2.6c0,0.1,0,0.1,0,0.2c0,0.3,0.2,0.5,0.7,0.5H571.2z"/>
	<path class="st2" d="M578.7,25.7l0-0.2c0.1-0.4,0.8,0,1-0.9l0.9-5.2c0-0.1,0-0.1,0-0.2c0-0.7-0.8-0.4-0.8-0.7c0,0,0-0.1,0-0.2h2.5
		c2.1,0,3.5,0.9,3.5,3c0,1.3-0.8,4.4-4.4,4.4H578.7z M580.6,24.6c-0.1,0.4,0.2,0.7,0.7,0.7h0.3c1.2,0,3.3-1,3.3-4.2
		c0-1.6-1-2.4-2.7-2.4h-0.6L580.6,24.6z"/>
	<path class="st2" d="M599.3,24.7c-0.1,0.8,0.9,0.4,0.8,0.8l0,0.1h-2.7l0-0.1c0.1-0.4,0.9-0.1,1-0.9l1-5.4c0.1-0.8-0.8-0.4-0.7-0.9
		l0-0.1h2.7l0,0.1c-0.1,0.4-1,0.1-1.1,0.8L599.3,24.7z"/>
	<path class="st2" d="M611.1,23.3c0.1,0.3,0.3,0.6,0.4,0.9c0,0,0,0,0,0l0.8-4.8c0.1-0.8-1-0.5-0.9-0.9l0-0.2h2.3l0,0.1
		c-0.1,0.3-0.4,0.3-0.7,0.4c-0.4,0.2-0.4,0.8-0.5,1.2l-1,5.6c-0.1,0-0.2,0.1-0.3,0.1l-3-5.8c-0.2-0.3-0.3-0.6-0.4-0.9h0l-0.8,4.6
		c0,0.3-0.1,0.6-0.1,0.8c-0.1,0.8,0.9,0.5,0.9,0.9l0,0.1h-2.3l0-0.1c0-0.2,0.3-0.2,0.5-0.3c0.5-0.1,0.5-0.5,0.7-1.3l0.8-4.3
		c0.2-1-0.8-0.6-0.7-1.1l0-0.2h1.8L611.1,23.3z"/>
	<path class="st2" d="M627.3,19.7c0-0.1,0-0.1,0-0.1c0-0.6-0.9-0.2-0.9-0.5v-0.2l1.9-0.6l0,0l-1.1,6.3c0,0.1,0,0.1,0,0.2
		c0,0.6,0.6,0.4,0.6,0.7c0,0,0,0.1,0,0.2h-2.3l0-0.2c0-0.4,0.7,0,0.8-0.9L627.3,19.7z"/>
	<path class="st2" d="M639.3,20.2c0,2.6-2.3,4.7-4.5,5.6l-0.1-0.2c2.2-1.1,3.8-3.1,3.8-5.5c0-0.8-0.3-1.4-1-1.4
		c-1.1,0-1.6,1.4-1.6,2.5c0,0.8,0.3,1.3,1.2,1.3c0.1,0,0.2,0,0.4,0c0,0.1,0,0.2,0,0.2c-0.4,0.2-0.7,0.3-1,0.3
		c-0.8,0-1.4-0.7-1.4-1.7c0-1.6,1.2-2.8,2.6-2.8C638.7,18.4,639.3,19.1,639.3,20.2z"/>
	<path class="st2" d="M648.6,19.9c0,1.7-2.2,3.6-4.1,5v0l3.5-0.3l0.1,0.1l-0.3,0.9h-4.3l0-0.2c2.2-1.7,4.3-3.5,4.3-5.5
		c0-0.8-0.5-1.2-1.1-1.2c-0.4,0-0.8,0.2-1.1,0.4c0.2,0.2,0.3,0.4,0.3,0.6c0,0.3-0.2,0.5-0.5,0.5c-0.2,0-0.4-0.2-0.4-0.5
		c0-0.7,0.9-1.5,2.1-1.5C648.2,18.4,648.6,19.1,648.6,19.9z"/>
	<path class="st2" d="M658.2,23c0,1.5-1.2,2.8-2.6,2.8c-1.2,0-1.7-0.8-1.7-1.9c0-2.6,2.3-4.7,4.5-5.6l0.1,0.2
		c-2.2,1.2-3.7,3.1-3.7,5.5c0,0.7,0.2,1.4,1,1.4c1.1,0,1.6-1.4,1.6-2.5c0-0.7-0.3-1.3-1.1-1.3c-0.2,0-0.3,0-0.4,0.1l0-0.2
		c0.4-0.2,0.7-0.2,1-0.2C657.6,21.2,658.2,21.9,658.2,23z"/>
</g>
</svg>
